<svg version="1.1" viewBox="0.0 0.0 1010.0 616.0" fill="none" stroke="none" stroke-linecap="square" stroke-miterlimit="10" width="1010" height="616" xmlns:xlink="http://www.w3.org/1999/xlink" xmlns="http://www.w3.org/2000/svg"><path fill="#ffffff" fill-opacity="0.0" d="M0 0L1010.0 0L1010.0 616.0L0 616.0L0 0Z" fill-rule="nonzero"/><path fill="#ffffff" d="M464.41568 33.994057C477.83923 31.867971 491.40912 30.8 505.0 30.8L505.0 160.51666C498.20456 160.51666 491.41962 161.05066 484.70786 162.1137Z" fill-rule="nonzero"/><path fill="#ffffff" d="M424.8307 43.49757C437.75638 39.297756 450.99213 36.120136 464.41568 33.994057L484.70786 162.1137C477.99606 163.17674 471.3782 164.76555 464.91534 166.86545Z" fill-rule="nonzero"/><path fill="#ffffff" d="M258.26425 210.06403C283.92685 131.08267 345.84933 69.16017 424.8307 43.49757L464.91534 166.86545C425.42468 179.69675 394.4634 210.658 381.6321 250.14868Z" fill-rule="nonzero"/><path fill="#ffffff" d="M352.5089 500.11932C261.5808 434.05615 223.53279 316.95645 258.26425 210.06403L381.6321 250.14868C364.2664 303.59488 383.2904 362.14474 428.75446 395.17633Z" fill-rule="nonzero"/><path fill="#ffffff" d="M505.0 30.8C617.3933 30.8 717.00433 103.171616 751.7358 210.06403C786.4672 316.95645 748.4192 434.05615 657.4911 500.11932C566.563 566.18243 443.43704 566.18243 352.5089 500.11932L428.75446 395.17633C474.2185 428.2079 535.7815 428.2079 581.24554 395.17633C626.7096 362.14474 645.7336 303.59488 628.36786 250.14868C611.00214 196.70247 561.19666 160.51666 505.0 160.51666Z" fill-rule="nonzero"/><path stroke="#000000" stroke-width="1.0" stroke-linejoin="round" stroke-linecap="round" d="M428.75446 395.17633C474.2185 428.2079 535.7815 428.2079 581.24554 395.17633C626.7096 362.14474 645.7336 303.59488 628.36786 250.14868C611.00214 196.70247 561.19666 160.51666 505.0 160.51666L505.0 30.8C617.3933 30.8 717.00433 103.171616 751.7358 210.06403C786.4672 316.95645 748.4192 434.05615 657.4911 500.11932C566.563 566.18243 443.43704 566.18243 352.5089 500.11932" fill-rule="nonzero"/><path stroke="#000000" stroke-width="1.0" stroke-linejoin="round" stroke-linecap="round" d="M381.6321 250.14868C364.2664 303.59488 383.2904 362.14474 428.75446 395.17633L352.5089 500.11932C261.5808 434.05615 223.53279 316.95645 258.26425 210.06403" fill-rule="nonzero"/><path stroke="#000000" stroke-width="1.0" stroke-linejoin="round" stroke-linecap="round" d="M464.91534 166.86545C425.42468 179.69675 394.4634 210.658 381.6321 250.14868L258.26425 210.06403C283.92685 131.08267 345.84933 69.16017 424.8307 43.49757" fill-rule="nonzero"/><path stroke="#000000" stroke-width="1.0" stroke-linejoin="round" stroke-linecap="round" d="M484.70786 162.1137C477.99606 163.17674 471.3782 164.76555 464.91534 166.86545L424.8307 43.49757C437.75638 39.297756 450.99213 36.120136 464.41568 33.994057" fill-rule="nonzero"/><path stroke="#000000" stroke-width="1.0" stroke-linejoin="round" stroke-linecap="round" d="M505.0 160.51666C498.20456 160.51666 491.41962 161.05066 484.70786 162.1137L464.41568 33.994057C477.83923 31.867971 491.40912 30.8 505.0 30.8" fill-rule="nonzero"/><path fill="#ffffff" d="M125.5 577.7C125.5 581.01373 122.813705 583.7 119.5 583.7C116.186295 583.7 113.5 581.01373 113.5 577.7C113.5 574.3863 116.186295 571.7 119.5 571.7C122.813705 571.7 125.5 574.3863 125.5 577.7Z" fill-rule="nonzero"/><path fill="#ffffff" d="M138.46875 573.66876L138.46875 574.575L138.26562 574.575Q137.0 574.60626 136.25 575.34064Q135.5 576.0594 135.375 577.3719Q136.0625 576.60626 137.21875 576.60626Q138.32812 576.60626 139.0 577.3875Q139.67188 578.16876 139.67188 579.41876Q139.67188 580.73126 138.95312 581.52814Q138.23438 582.325 137.01562 582.325Q135.79688 582.325 135.03125 581.3875Q134.28125 580.4344 134.28125 578.95L134.28125 578.54376Q134.28125 576.1844 135.28125 574.9344Q136.28125 573.6844 138.26562 573.66876L138.46875 573.66876ZM137.04688 577.5125Q136.48438 577.5125 136.01562 577.84064Q135.54688 578.16876 135.35938 578.6844L135.35938 579.075Q135.35938 580.1375 135.82812 580.77814Q136.3125 581.41876 137.01562 581.41876Q137.75 581.41876 138.17188 580.8875Q138.59375 580.34064 138.59375 579.46564Q138.59375 578.59064 138.17188 578.0594Q137.75 577.5125 137.04688 577.5125ZM146.5625 578.5594Q146.5625 580.46564 145.90625 581.40314Q145.26562 582.325 143.875 582.325Q142.51562 582.325 141.85938 581.41876Q141.20312 580.5125 141.17188 578.7L141.17188 577.2625Q141.17188 575.3719 141.8125 574.46564Q142.46875 573.54376 143.85938 573.54376Q145.23438 573.54376 145.89062 574.4344Q146.54688 575.3094 146.5625 577.15314L146.5625 578.5594ZM145.46875 577.075Q145.46875 575.7 145.07812 575.075Q144.70312 574.4344 143.85938 574.4344Q143.03125 574.4344 142.64062 575.075Q142.26562 575.7 142.26562 576.9969L142.26562 578.73126Q142.26562 580.10626 142.65625 580.77814Q143.0625 581.4344 143.875 581.4344Q144.67188 581.4344 145.0625 580.8094Q145.45312 580.1844 145.46875 578.85626L145.46875 577.075ZM148.10938 575.3094Q148.10938 574.54376 148.59375 574.04376Q149.09375 573.54376 149.85938 573.54376Q150.64062 573.54376 151.125 574.04376Q151.60938 574.54376 151.60938 575.34064L151.60938 575.7625Q151.60938 576.52814 151.10938 577.02814Q150.625 577.5125 149.875 577.5125Q149.10938 577.5125 148.60938 577.02814Q148.10938 576.52814 148.10938 575.71564L148.10938 575.3094ZM148.92188 575.7625Q148.92188 576.21564 149.17188 576.5125Q149.4375 576.8094 149.875 576.8094Q150.29688 576.8094 150.54688 576.52814Q150.79688 576.23126 150.79688 575.73126L150.79688 575.3094Q150.79688 574.85626 150.54688 574.5594Q150.29688 574.2469 149.85938 574.2469Q149.42188 574.2469 149.17188 574.5594Q148.92188 574.85626 148.92188 575.325L148.92188 575.7625ZM152.26562 580.10626Q152.26562 579.34064 152.75 578.85626Q153.25 578.35626 154.01562 578.35626Q154.78125 578.35626 155.26562 578.85626Q155.76562 579.34064 155.76562 580.15314L155.76562 580.5594Q155.76562 581.325 155.28125 581.825Q154.79688 582.325 154.03125 582.325Q153.26562 582.325 152.76562 581.84064Q152.26562 581.34064 152.26562 580.52814L152.26562 580.10626ZM153.07812 580.5594Q153.07812 581.02814 153.32812 581.325Q153.59375 581.6219 154.03125 581.6219Q154.45312 581.6219 154.70312 581.34064Q154.95312 581.04376 154.95312 580.54376L154.95312 580.10626Q154.95312 579.6375 154.6875 579.35626Q154.4375 579.0594 154.01562 579.0594Q153.59375 579.0594 153.32812 579.35626Q153.07812 579.6375 153.07812 580.1375L153.07812 580.5594ZM150.125 581.5594L149.5 581.16876L153.67188 574.4969L154.28125 574.8875L150.125 581.5594ZM160.48438 582.2L160.48438 573.66876L162.90625 573.66876Q164.01562 573.66876 164.85938 574.16876Q165.71875 574.65314 166.1875 575.5594Q166.65625 576.46564 166.65625 577.65314L166.65625 578.1844Q166.65625 579.40314 166.1875 580.3094Q165.73438 581.21564 164.85938 581.7Q164.0 582.1844 162.85938 582.2L160.48438 582.2ZM161.60938 574.59064L161.60938 581.27814L162.79688 581.27814Q164.09375 581.27814 164.8125 580.48126Q165.54688 579.66876 165.54688 578.16876L165.54688 577.66876Q165.54688 576.21564 164.85938 575.41876Q164.1875 574.60626 162.92188 574.59064L161.60938 574.59064ZM173.20312 579.96564L169.625 579.96564L168.82812 582.2L167.67188 582.2L170.92188 573.66876L171.90625 573.66876L175.17188 582.2L174.01562 582.2L173.20312 579.96564ZM169.96875 579.04376L172.875 579.04376L171.42188 575.0594L169.96875 579.04376ZM183.04688 578.21564Q183.04688 579.46564 182.625 580.40314Q182.20312 581.325 181.42188 581.825Q180.65625 582.325 179.625 582.325Q178.625 582.325 177.84375 581.825Q177.0625 581.325 176.625 580.41876Q176.20312 579.4969 176.1875 578.27814L176.1875 577.66876Q176.1875 576.4344 176.60938 575.4969Q177.04688 574.5594 177.82812 574.0594Q178.60938 573.54376 179.625 573.54376Q180.64062 573.54376 181.42188 574.04376Q182.20312 574.54376 182.625 575.48126Q183.04688 576.41876 183.04688 577.66876L183.04688 578.21564ZM181.9375 577.65314Q181.9375 576.1375 181.32812 575.325Q180.71875 574.5125 179.625 574.5125Q178.54688 574.5125 177.9375 575.325Q177.32812 576.1375 177.3125 577.575L177.3125 578.21564Q177.3125 579.6844 177.92188 580.52814Q178.54688 581.35626 179.625 581.35626Q180.71875 581.35626 181.3125 580.575Q181.92188 579.77814 181.9375 578.29376L181.9375 577.65314Z" fill-rule="nonzero"/><path fill="#ffffff" d="M211.5 577.7C211.5 581.01373 208.8137 583.7 205.5 583.7C202.1863 583.7 199.5 581.01373 199.5 577.7C199.5 574.3863 202.1863 571.7 205.5 571.7C208.8137 571.7 211.5 574.3863 211.5 577.7Z" fill-rule="nonzero"/><path fill="#ffffff" d="M225.79688 582.2L220.20312 582.2L220.20312 581.41876L223.15625 578.1375Q223.8125 577.3875 224.0625 576.9344Q224.3125 576.46564 224.3125 575.96564Q224.3125 575.29376 223.90625 574.8719Q223.51562 574.4344 222.82812 574.4344Q222.03125 574.4344 221.57812 574.90314Q221.125 575.35626 221.125 576.1844L220.04688 576.1844Q220.04688 574.9969 220.79688 574.27814Q221.5625 573.54376 222.82812 573.54376Q224.03125 573.54376 224.71875 574.16876Q225.40625 574.79376 225.40625 575.84064Q225.40625 577.09064 223.79688 578.84064L221.51562 581.3094L225.79688 581.3094L225.79688 582.2ZM232.5625 578.5594Q232.5625 580.46564 231.90625 581.40314Q231.26562 582.325 229.875 582.325Q228.51562 582.325 227.85938 581.41876Q227.20312 580.5125 227.17188 578.7L227.17188 577.2625Q227.17188 575.3719 227.8125 574.46564Q228.46875 573.54376 229.85938 573.54376Q231.23438 573.54376 231.89062 574.4344Q232.54688 575.3094 232.5625 577.15314L232.5625 578.5594ZM231.46875 577.075Q231.46875 575.7 231.07812 575.075Q230.70312 574.4344 229.85938 574.4344Q229.03125 574.4344 228.64062 575.075Q228.26562 575.7 228.26562 576.9969L228.26562 578.73126Q228.26562 580.10626 228.65625 580.77814Q229.0625 581.4344 229.875 581.4344Q230.67188 581.4344 231.0625 580.8094Q231.45312 580.1844 231.46875 578.85626L231.46875 577.075ZM234.10938 575.3094Q234.10938 574.54376 234.59375 574.04376Q235.09375 573.54376 235.85938 573.54376Q236.64062 573.54376 237.125 574.04376Q237.60938 574.54376 237.60938 575.34064L237.60938 575.7625Q237.60938 576.52814 237.10938 577.02814Q236.625 577.5125 235.875 577.5125Q235.10938 577.5125 234.60938 577.02814Q234.10938 576.52814 234.10938 575.71564L234.10938 575.3094ZM234.92188 575.7625Q234.92188 576.21564 235.17188 576.5125Q235.4375 576.8094 235.875 576.8094Q236.29688 576.8094 236.54688 576.52814Q236.79688 576.23126 236.79688 575.73126L236.79688 575.3094Q236.79688 574.85626 236.54688 574.5594Q236.29688 574.2469 235.85938 574.2469Q235.42188 574.2469 235.17188 574.5594Q234.92188 574.85626 234.92188 575.325L234.92188 575.7625ZM238.26562 580.10626Q238.26562 579.34064 238.75 578.85626Q239.25 578.35626 240.01562 578.35626Q240.78125 578.35626 241.26562 578.85626Q241.76562 579.34064 241.76562 580.15314L241.76562 580.5594Q241.76562 581.325 241.28125 581.825Q240.79688 582.325 240.03125 582.325Q239.26562 582.325 238.76562 581.84064Q238.26562 581.34064 238.26562 580.52814L238.26562 580.10626ZM239.07812 580.5594Q239.07812 581.02814 239.32812 581.325Q239.59375 581.6219 240.03125 581.6219Q240.45312 581.6219 240.70312 581.34064Q240.95312 581.04376 240.95312 580.54376L240.95312 580.10626Q240.95312 579.6375 240.6875 579.35626Q240.4375 579.0594 240.01562 579.0594Q239.59375 579.0594 239.32812 579.35626Q239.07812 579.6375 239.07812 580.1375L239.07812 580.5594ZM236.125 581.5594L235.5 581.16876L239.67188 574.4969L240.28125 574.8875L236.125 581.5594ZM251.3125 578.2625L247.60938 578.2625L247.60938 581.27814L251.90625 581.27814L251.90625 582.2L246.48438 582.2L246.48438 573.66876L251.85938 573.66876L251.85938 574.59064L247.60938 574.59064L247.60938 577.34064L251.3125 577.34064L251.3125 578.2625ZM257.23438 582.2Q257.14062 582.0125 257.07812 581.52814Q256.32812 582.325 255.28125 582.325Q254.34375 582.325 253.73438 581.79376Q253.14062 581.2625 253.14062 580.4344Q253.14062 579.45 253.89062 578.90314Q254.64062 578.35626 256.01562 578.35626L257.0625 578.35626L257.0625 577.85626Q257.0625 577.29376 256.71875 576.96564Q256.39062 576.6219 255.71875 576.6219Q255.14062 576.6219 254.75 576.91876Q254.35938 577.2 254.35938 577.6219L253.26562 577.6219Q253.26562 577.1375 253.59375 576.7Q253.9375 576.2625 254.51562 576.0125Q255.09375 575.7469 255.78125 575.7469Q256.89062 575.7469 257.5 576.29376Q258.125 576.84064 258.15625 577.79376L258.15625 580.71564Q258.15625 581.59064 258.375 582.10626L258.375 582.2L257.23438 582.2ZM255.4375 581.3719Q255.95312 581.3719 256.40625 581.10626Q256.85938 580.84064 257.0625 580.41876L257.0625 579.1219L256.21875 579.1219Q254.21875 579.1219 254.21875 580.29376Q254.21875 580.79376 254.5625 581.09064Q254.90625 581.3719 255.4375 581.3719ZM263.39062 576.825Q263.14062 576.79376 262.85938 576.79376Q261.78125 576.79376 261.40625 577.7L261.40625 582.2L260.32812 582.2L260.32812 575.85626L261.375 575.85626L261.39062 576.59064Q261.92188 575.7469 262.90625 575.7469Q263.21875 575.7469 263.39062 575.825L263.39062 576.825ZM265.5 582.2L264.42188 582.2L264.42188 573.2L265.5 573.2L265.5 582.2ZM269.39062 580.60626L270.875 575.85626L272.03125 575.85626L269.48438 583.1844Q268.89062 584.7625 267.60938 584.7625L267.39062 584.7469L267.0 584.66876L267.0 583.79376L267.28125 583.8094Q267.84375 583.8094 268.14062 583.59064Q268.45312 583.3719 268.65625 582.77814L268.89062 582.1219L266.625 575.85626L267.8125 575.85626L269.39062 580.60626ZM279.0 578.40314Q277.5625 577.98126 276.89062 577.3719Q276.23438 576.7625 276.23438 575.8719Q276.23438 574.8719 277.03125 574.21564Q277.84375 573.54376 279.14062 573.54376Q280.01562 573.54376 280.70312 573.8875Q281.39062 574.23126 281.76562 574.825Q282.15625 575.41876 282.15625 576.1375L281.01562 576.1375Q281.01562 575.35626 280.51562 574.91876Q280.03125 574.48126 279.14062 574.48126Q278.3125 574.48126 277.84375 574.85626Q277.375 575.21564 277.375 575.85626Q277.375 576.3875 277.8125 576.7469Q278.26562 577.10626 279.32812 577.40314Q280.39062 577.7 280.98438 578.0594Q281.59375 578.41876 281.875 578.90314Q282.17188 579.3875 282.17188 580.02814Q282.17188 581.075 281.35938 581.7Q280.54688 582.325 279.20312 582.325Q278.3125 582.325 277.54688 581.98126Q276.79688 581.6375 276.375 581.0594Q275.96875 580.46564 275.96875 579.73126L277.09375 579.73126Q277.09375 580.4969 277.67188 580.95Q278.25 581.40314 279.20312 581.40314Q280.09375 581.40314 280.5625 581.04376Q281.03125 580.66876 281.03125 580.04376Q281.03125 579.41876 280.59375 579.075Q280.15625 578.73126 279.0 578.40314ZM287.23438 581.575Q286.60938 582.325 285.375 582.325Q284.35938 582.325 283.82812 581.73126Q283.29688 581.1375 283.29688 579.98126L283.29688 575.85626L284.375 575.85626L284.375 579.95Q284.375 581.40314 285.54688 581.40314Q286.79688 581.40314 287.20312 580.46564L287.20312 575.85626L288.29688 575.85626L288.29688 582.2L287.26562 582.2L287.23438 581.575ZM295.67188 579.10626Q295.67188 580.54376 295.01562 581.4344Q294.35938 582.325 293.21875 582.325Q292.0625 582.325 291.40625 581.59064L291.40625 584.6375L290.32812 584.6375L290.32812 575.85626L291.3125 575.85626L291.35938 576.5594Q292.03125 575.7469 293.20312 575.7469Q294.34375 575.7469 295.0 576.60626Q295.67188 577.46564 295.67188 578.9969L295.67188 579.10626ZM294.59375 578.98126Q294.59375 577.90314 294.125 577.29376Q293.67188 576.66876 292.875 576.66876Q291.89062 576.66876 291.40625 577.52814L291.40625 580.5594Q291.89062 581.4344 292.89062 581.4344Q293.67188 581.4344 294.125 580.825Q294.59375 580.2 294.59375 578.98126ZM302.67188 579.10626Q302.67188 580.54376 302.01562 581.4344Q301.35938 582.325 300.21875 582.325Q299.0625 582.325 298.40625 581.59064L298.40625 584.6375L297.32812 584.6375L297.32812 575.85626L298.3125 575.85626L298.35938 576.5594Q299.03125 575.7469 300.20312 575.7469Q301.34375 575.7469 302.0 576.60626Q302.67188 577.46564 302.67188 578.9969L302.67188 579.10626ZM301.59375 578.98126Q301.59375 577.90314 301.125 577.29376Q300.67188 576.66876 299.875 576.66876Q298.89062 576.66876 298.40625 577.52814L298.40625 580.5594Q298.89062 581.4344 299.89062 581.4344Q300.67188 581.4344 301.125 580.825Q301.59375 580.2 301.59375 578.98126ZM304.03125 578.96564Q304.03125 578.04376 304.39062 577.29376Q304.76562 576.54376 305.42188 576.15314Q306.07812 575.7469 306.90625 575.7469Q308.20312 575.7469 309.0 576.6375Q309.8125 577.52814 309.8125 579.02814L309.8125 579.10626Q309.8125 580.02814 309.45312 580.7625Q309.09375 581.4969 308.4375 581.91876Q307.78125 582.325 306.92188 582.325Q305.64062 582.325 304.82812 581.4344Q304.03125 580.52814 304.03125 579.04376L304.03125 578.96564ZM305.125 579.10626Q305.125 580.15314 305.60938 580.79376Q306.10938 581.4344 306.92188 581.4344Q307.75 581.4344 308.23438 580.79376Q308.71875 580.1375 308.71875 578.96564Q308.71875 577.9344 308.21875 577.29376Q307.73438 576.6375 306.90625 576.6375Q306.10938 576.6375 305.60938 577.27814Q305.125 577.90314 305.125 579.10626ZM314.39062 576.825Q314.14062 576.79376 313.85938 576.79376Q312.78125 576.79376 312.40625 577.7L312.40625 582.2L311.32812 582.2L311.32812 575.85626L312.375 575.85626L312.39062 576.59064Q312.92188 575.7469 313.90625 575.7469Q314.21875 575.7469 314.39062 575.825L314.39062 576.825ZM316.79688 574.325L316.79688 575.85626L317.96875 575.85626L317.96875 576.7L316.79688 576.7L316.79688 580.6219Q316.79688 581.0125 316.95312 581.2Q317.10938 581.3875 317.48438 581.3875Q317.67188 581.3875 318.0 581.325L318.0 582.2Q317.57812 582.325 317.17188 582.325Q316.45312 582.325 316.07812 581.8875Q315.70312 581.4344 315.70312 580.6219L315.70312 576.7L314.54688 576.7L314.54688 575.85626L315.70312 575.85626L315.70312 574.325L316.79688 574.325ZM321.95312 582.325Q320.65625 582.325 319.84375 581.48126Q319.04688 580.6219 319.04688 579.2L319.04688 579.0125Q319.04688 578.0594 319.40625 577.325Q319.76562 576.575 320.40625 576.16876Q321.0625 575.7469 321.8125 575.7469Q323.04688 575.7469 323.73438 576.5594Q324.42188 577.3719 324.42188 578.8875L324.42188 579.34064L320.125 579.34064Q320.15625 580.27814 320.67188 580.85626Q321.20312 581.4344 322.01562 581.4344Q322.57812 581.4344 322.96875 581.2Q323.375 580.96564 323.6875 580.575L324.34375 581.09064Q323.54688 582.325 321.95312 582.325ZM321.8125 576.6375Q321.15625 576.6375 320.70312 577.1219Q320.26562 577.59064 320.17188 578.45L323.34375 578.45L323.34375 578.3719Q323.29688 577.54376 322.89062 577.09064Q322.5 576.6375 321.8125 576.6375ZM328.39062 576.825Q328.14062 576.79376 327.85938 576.79376Q326.78125 576.79376 326.40625 577.7L326.40625 582.2L325.32812 582.2L325.32812 575.85626L326.375 575.85626L326.39062 576.59064Q326.92188 575.7469 327.90625 575.7469Q328.21875 575.7469 328.39062 575.825L328.39062 576.825ZM333.01562 580.5125Q333.01562 580.075 332.67188 579.84064Q332.34375 579.59064 331.51562 579.41876Q330.70312 579.2469 330.21875 578.9969Q329.73438 578.7469 329.5 578.41876Q329.28125 578.075 329.28125 577.60626Q329.28125 576.825 329.9375 576.29376Q330.59375 575.7469 331.625 575.7469Q332.70312 575.7469 333.35938 576.3094Q334.03125 576.85626 334.03125 577.71564L332.95312 577.71564Q332.95312 577.27814 332.5625 576.96564Q332.1875 576.6375 331.625 576.6375Q331.03125 576.6375 330.6875 576.90314Q330.35938 577.15314 330.35938 577.5594Q330.35938 577.95 330.67188 578.15314Q330.98438 578.35626 331.79688 578.54376Q332.60938 578.71564 333.10938 578.96564Q333.60938 579.21564 333.84375 579.575Q334.09375 579.9344 334.09375 580.4344Q334.09375 581.29376 333.40625 581.8094Q332.73438 582.325 331.65625 582.325Q330.89062 582.325 330.29688 582.0594Q329.71875 581.77814 329.39062 581.29376Q329.0625 580.8094 329.0625 580.2469L330.14062 580.2469Q330.17188 580.79376 330.57812 581.1219Q330.98438 581.4344 331.65625 581.4344Q332.26562 581.4344 332.64062 581.1844Q333.01562 580.9344 333.01562 580.5125ZM338.53125 582.9344L337.60938 582.9344L341.17188 573.66876L342.09375 573.66876L338.53125 582.9344ZM346.48438 582.2L346.48438 573.66876L348.90625 573.66876Q350.01562 573.66876 350.85938 574.16876Q351.71875 574.65314 352.1875 575.5594Q352.65625 576.46564 352.65625 577.65314L352.65625 578.1844Q352.65625 579.40314 352.1875 580.3094Q351.73438 581.21564 350.85938 581.7Q350.0 582.1844 348.85938 582.2L346.48438 582.2ZM347.60938 574.59064L347.60938 581.27814L348.79688 581.27814Q350.09375 581.27814 350.8125 580.48126Q351.54688 579.66876 351.54688 578.16876L351.54688 577.66876Q351.54688 576.21564 350.85938 575.41876Q350.1875 574.60626 348.92188 574.59064L347.60938 574.59064ZM356.95312 582.325Q355.65625 582.325 354.84375 581.48126Q354.04688 580.6219 354.04688 579.2L354.04688 579.0125Q354.04688 578.0594 354.40625 577.325Q354.76562 576.575 355.40625 576.16876Q356.0625 575.7469 356.8125 575.7469Q358.04688 575.7469 358.73438 576.5594Q359.42188 577.3719 359.42188 578.8875L359.42188 579.34064L355.125 579.34064Q355.15625 580.27814 355.67188 580.85626Q356.20312 581.4344 357.01562 581.4344Q357.57812 581.4344 357.96875 581.2Q358.375 580.96564 358.6875 580.575L359.34375 581.09064Q358.54688 582.325 356.95312 582.325ZM356.8125 576.6375Q356.15625 576.6375 355.70312 577.1219Q355.26562 577.59064 355.17188 578.45L358.34375 578.45L358.34375 578.3719Q358.29688 577.54376 357.89062 577.09064Q357.5 576.6375 356.8125 576.6375ZM362.40625 580.73126L363.98438 575.85626L365.09375 575.85626L362.8125 582.2L361.98438 582.2L359.6875 575.85626L360.79688 575.85626L362.40625 580.73126ZM370.01562 580.5125Q370.01562 580.075 369.67188 579.84064Q369.34375 579.59064 368.51562 579.41876Q367.70312 579.2469 367.21875 578.9969Q366.73438 578.7469 366.5 578.41876Q366.28125 578.075 366.28125 577.60626Q366.28125 576.825 366.9375 576.29376Q367.59375 575.7469 368.625 575.7469Q369.70312 575.7469 370.35938 576.3094Q371.03125 576.85626 371.03125 577.71564L369.95312 577.71564Q369.95312 577.27814 369.5625 576.96564Q369.1875 576.6375 368.625 576.6375Q368.03125 576.6375 367.6875 576.90314Q367.35938 577.15314 367.35938 577.5594Q367.35938 577.95 367.67188 578.15314Q367.98438 578.35626 368.79688 578.54376Q369.60938 578.71564 370.10938 578.96564Q370.60938 579.21564 370.84375 579.575Q371.09375 579.9344 371.09375 580.4344Q371.09375 581.29376 370.40625 581.8094Q369.73438 582.325 368.65625 582.325Q367.89062 582.325 367.29688 582.0594Q366.71875 581.77814 366.39062 581.29376Q366.0625 580.8094 366.0625 580.2469L367.14062 580.2469Q367.17188 580.79376 367.57812 581.1219Q367.98438 581.4344 368.65625 581.4344Q369.26562 581.4344 369.64062 581.1844Q370.01562 580.9344 370.01562 580.5125Z" fill-rule="nonzero"/><path fill="#ffffff" d="M399.5 577.7C399.5 581.01373 396.81372 583.7 393.5 583.7C390.18628 583.7 387.5 581.01373 387.5 577.7C387.5 574.3863 390.18628 571.7 393.5 571.7C396.81372 571.7 399.5 574.3863 399.5 577.7Z" fill-rule="nonzero"/><path fill="#ffffff" d="M411.76562 582.2L410.6875 582.2L410.6875 574.98126L408.5 575.77814L408.5 574.79376L411.60938 573.6219L411.76562 573.6219L411.76562 582.2ZM415.70312 577.91876L416.14062 573.66876L420.51562 573.66876L420.51562 574.66876L417.0625 574.66876L416.79688 576.9969Q417.4375 576.6219 418.23438 576.6219Q419.39062 576.6219 420.07812 577.40314Q420.76562 578.16876 420.76562 579.48126Q420.76562 580.79376 420.04688 581.5594Q419.34375 582.325 418.0625 582.325Q416.9375 582.325 416.21875 581.7Q415.5 581.0594 415.40625 579.95L416.42188 579.95Q416.53125 580.6844 416.95312 581.0594Q417.375 581.4344 418.0625 581.4344Q418.8125 581.4344 419.25 580.91876Q419.6875 580.40314 419.6875 579.4969Q419.6875 578.6375 419.21875 578.1219Q418.75 577.60626 417.96875 577.60626Q417.26562 577.60626 416.85938 577.90314L416.57812 578.1375L415.70312 577.91876ZM422.10938 575.3094Q422.10938 574.54376 422.59375 574.04376Q423.09375 573.54376 423.85938 573.54376Q424.64062 573.54376 425.125 574.04376Q425.60938 574.54376 425.60938 575.34064L425.60938 575.7625Q425.60938 576.52814 425.10938 577.02814Q424.625 577.5125 423.875 577.5125Q423.10938 577.5125 422.60938 577.02814Q422.10938 576.52814 422.10938 575.71564L422.10938 575.3094ZM422.92188 575.7625Q422.92188 576.21564 423.17188 576.5125Q423.4375 576.8094 423.875 576.8094Q424.29688 576.8094 424.54688 576.52814Q424.79688 576.23126 424.79688 575.73126L424.79688 575.3094Q424.79688 574.85626 424.54688 574.5594Q424.29688 574.2469 423.85938 574.2469Q423.42188 574.2469 423.17188 574.5594Q422.92188 574.85626 422.92188 575.325L422.92188 575.7625ZM426.26562 580.10626Q426.26562 579.34064 426.75 578.85626Q427.25 578.35626 428.01562 578.35626Q428.78125 578.35626 429.26562 578.85626Q429.76562 579.34064 429.76562 580.15314L429.76562 580.5594Q429.76562 581.325 429.28125 581.825Q428.79688 582.325 428.03125 582.325Q427.26562 582.325 426.76562 581.84064Q426.26562 581.34064 426.26562 580.52814L426.26562 580.10626ZM427.07812 580.5594Q427.07812 581.02814 427.32812 581.325Q427.59375 581.6219 428.03125 581.6219Q428.45312 581.6219 428.70312 581.34064Q428.95312 581.04376 428.95312 580.54376L428.95312 580.10626Q428.95312 579.6375 428.6875 579.35626Q428.4375 579.0594 428.01562 579.0594Q427.59375 579.0594 427.32812 579.35626Q427.07812 579.6375 427.07812 580.1375L427.07812 580.5594ZM424.125 581.5594L423.5 581.16876L427.67188 574.4969L428.28125 574.8875L424.125 581.5594ZM439.20312 579.96564L435.625 579.96564L434.82812 582.2L433.67188 582.2L436.92188 573.66876L437.90625 573.66876L441.17188 582.2L440.01562 582.2L439.20312 579.96564ZM435.96875 579.04376L438.875 579.04376L437.42188 575.0594L435.96875 579.04376ZM445.39062 576.825Q445.14062 576.79376 444.85938 576.79376Q443.78125 576.79376 443.40625 577.7L443.40625 582.2L442.32812 582.2L442.32812 575.85626L443.375 575.85626L443.39062 576.59064Q443.92188 575.7469 444.90625 575.7469Q445.21875 575.7469 445.39062 575.825L445.39062 576.825ZM448.85938 581.4344Q449.4375 581.4344 449.875 581.09064Q450.3125 580.73126 450.35938 580.2L451.39062 580.2Q451.35938 580.7469 451.0 581.2469Q450.65625 581.73126 450.07812 582.02814Q449.51562 582.325 448.85938 582.325Q447.5625 582.325 446.79688 581.46564Q446.04688 580.59064 446.04688 579.09064L446.04688 578.90314Q446.04688 577.98126 446.375 577.2625Q446.71875 576.54376 447.34375 576.15314Q447.98438 575.7469 448.85938 575.7469Q449.92188 575.7469 450.625 576.3875Q451.34375 577.0125 451.39062 578.04376L450.35938 578.04376Q450.3125 577.41876 449.89062 577.02814Q449.46875 576.6375 448.85938 576.6375Q448.03125 576.6375 447.57812 577.23126Q447.125 577.825 447.125 578.95L447.125 579.15314Q447.125 580.2469 447.57812 580.84064Q448.03125 581.4344 448.85938 581.4344ZM453.40625 576.6219Q454.125 575.7469 455.28125 575.7469Q457.29688 575.7469 457.3125 578.0125L457.3125 582.2L456.21875 582.2L456.21875 577.9969Q456.21875 577.325 455.90625 576.9969Q455.60938 576.66876 454.95312 576.66876Q454.42188 576.66876 454.01562 576.95Q453.625 577.23126 453.40625 577.6844L453.40625 582.2L452.32812 582.2L452.32812 573.2L453.40625 573.2L453.40625 576.6219ZM462.48438 582.2L462.48438 573.66876L465.28125 573.66876Q466.67188 573.66876 467.35938 574.2469Q468.0625 574.8094 468.0625 575.9344Q468.0625 576.54376 467.71875 577.0125Q467.39062 577.46564 466.79688 577.71564Q467.5 577.90314 467.89062 578.45Q468.29688 578.98126 468.29688 579.73126Q468.29688 580.8875 467.54688 581.54376Q466.8125 582.2 465.45312 582.2L462.48438 582.2ZM463.60938 578.21564L463.60938 581.27814L465.46875 581.27814Q466.26562 581.27814 466.71875 580.8719Q467.17188 580.46564 467.17188 579.7469Q467.17188 578.21564 465.48438 578.21564L463.60938 578.21564ZM463.60938 577.3094L465.3125 577.3094Q466.04688 577.3094 466.48438 576.95Q466.9375 576.575 466.9375 575.9344Q466.9375 575.23126 466.53125 574.91876Q466.125 574.59064 465.28125 574.59064L463.60938 574.59064L463.60938 577.3094ZM469.03125 578.96564Q469.03125 578.04376 469.39062 577.29376Q469.76562 576.54376 470.42188 576.15314Q471.07812 575.7469 471.90625 575.7469Q473.20312 575.7469 474.0 576.6375Q474.8125 577.52814 474.8125 579.02814L474.8125 579.10626Q474.8125 580.02814 474.45312 580.7625Q474.09375 581.4969 473.4375 581.91876Q472.78125 582.325 471.92188 582.325Q470.64062 582.325 469.82812 581.4344Q469.03125 580.52814 469.03125 579.04376L469.03125 578.96564ZM470.125 579.10626Q470.125 580.15314 470.60938 580.79376Q471.10938 581.4344 471.92188 581.4344Q472.75 581.4344 473.23438 580.79376Q473.71875 580.1375 473.71875 578.96564Q473.71875 577.9344 473.21875 577.29376Q472.73438 576.6375 471.90625 576.6375Q471.10938 576.6375 470.60938 577.27814Q470.125 577.90314 470.125 579.10626ZM477.34375 575.85626L477.375 576.65314Q478.10938 575.7469 479.28125 575.7469Q481.29688 575.7469 481.3125 578.0125L481.3125 582.2L480.21875 582.2L480.21875 577.9969Q480.21875 577.325 479.90625 576.9969Q479.60938 576.66876 478.95312 576.66876Q478.42188 576.66876 478.01562 576.95Q477.625 577.23126 477.40625 577.6844L477.40625 582.2L476.32812 582.2L476.32812 575.85626L477.34375 575.85626ZM483.0625 578.98126Q483.0625 577.5125 483.75 576.6375Q484.4375 575.7469 485.5625 575.7469Q486.67188 575.7469 487.32812 576.4969L487.32812 573.2L488.40625 573.2L488.40625 582.2L487.40625 582.2L487.35938 581.5125Q486.70312 582.325 485.54688 582.325Q484.45312 582.325 483.75 581.41876Q483.0625 580.5125 483.0625 579.0594L483.0625 578.98126ZM484.14062 579.10626Q484.14062 580.1844 484.57812 580.79376Q485.03125 581.40314 485.8125 581.40314Q486.84375 581.40314 487.32812 580.46564L487.32812 577.5594Q486.84375 576.66876 485.82812 576.66876Q485.03125 576.66876 484.57812 577.27814Q484.14062 577.8875 484.14062 579.10626ZM491.5 582.2L490.42188 582.2L490.42188 575.85626L491.5 575.85626L491.5 582.2ZM490.32812 574.1844Q490.32812 573.91876 490.48438 573.73126Q490.65625 573.54376 490.96875 573.54376Q491.28125 573.54376 491.4375 573.73126Q491.60938 573.91876 491.60938 574.1844Q491.60938 574.4344 491.4375 574.6219Q491.28125 574.79376 490.96875 574.79376Q490.65625 574.79376 490.48438 574.6219Q490.32812 574.4344 490.32812 574.1844ZM494.34375 575.85626L494.375 576.65314Q495.10938 575.7469 496.28125 575.7469Q498.29688 575.7469 498.3125 578.0125L498.3125 582.2L497.21875 582.2L497.21875 577.9969Q497.21875 577.325 496.90625 576.9969Q496.60938 576.66876 495.95312 576.66876Q495.42188 576.66876 495.01562 576.95Q494.625 577.23126 494.40625 577.6844L494.40625 582.2L493.32812 582.2L493.32812 575.85626L494.34375 575.85626ZM500.0625 578.98126Q500.0625 577.4969 500.75 576.6219Q501.4375 575.7469 502.5625 575.7469Q503.71875 575.7469 504.375 576.5594L504.42188 575.85626L505.42188 575.85626L505.42188 582.04376Q505.42188 583.27814 504.6875 583.98126Q503.95312 584.7 502.73438 584.7Q502.04688 584.7 501.39062 584.40314Q500.73438 584.10626 500.39062 583.60626L500.95312 582.95Q501.64062 583.8094 502.65625 583.8094Q503.4375 583.8094 503.875 583.35626Q504.32812 582.91876 504.32812 582.10626L504.32812 581.5594Q503.67188 582.325 502.54688 582.325Q501.4375 582.325 500.75 581.4344Q500.0625 580.52814 500.0625 578.98126ZM501.15625 579.10626Q501.15625 580.16876 501.59375 580.79376Q502.03125 581.40314 502.82812 581.40314Q503.84375 581.40314 504.32812 580.46564L504.32812 577.575Q503.82812 576.66876 502.82812 576.66876Q502.04688 576.66876 501.59375 577.27814Q501.15625 577.8875 501.15625 579.10626ZM511.70312 582.2L510.57812 582.2L510.57812 573.66876L511.70312 573.66876L511.70312 582.2ZM514.34375 575.85626L514.375 576.65314Q515.1094 575.7469 516.28125 575.7469Q518.2969 575.7469 518.3125 578.0125L518.3125 582.2L517.21875 582.2L517.21875 577.9969Q517.21875 577.325 516.90625 576.9969Q516.6094 576.66876 515.9531 576.66876Q515.4219 576.66876 515.0156 576.95Q514.625 577.23126 514.40625 577.6844L514.40625 582.2L513.3281 582.2L513.3281 575.85626L514.34375 575.85626ZM522.8594 581.4344Q523.4375 581.4344 523.875 581.09064Q524.3125 580.73126 524.3594 580.2L525.3906 580.2Q525.3594 580.7469 525.0 581.2469Q524.65625 581.73126 524.0781 582.02814Q523.5156 582.325 522.8594 582.325Q521.5625 582.325 520.7969 581.46564Q520.0469 580.59064 520.0469 579.09064L520.0469 578.90314Q520.0469 577.98126 520.375 577.2625Q520.71875 576.54376 521.34375 576.15314Q521.9844 575.7469 522.8594 575.7469Q523.9219 575.7469 524.625 576.3875Q525.34375 577.0125 525.3906 578.04376L524.3594 578.04376Q524.3125 577.41876 523.8906 577.02814Q523.46875 576.6375 522.8594 576.6375Q522.03125 576.6375 521.5781 577.23126Q521.125 577.825 521.125 578.95L521.125 579.15314Q521.125 580.2469 521.5781 580.84064Q522.03125 581.4344 522.8594 581.4344ZM528.9531 582.325Q527.65625 582.325 526.84375 581.48126Q526.0469 580.6219 526.0469 579.2L526.0469 579.0125Q526.0469 578.0594 526.40625 577.325Q526.7656 576.575 527.40625 576.16876Q528.0625 575.7469 528.8125 575.7469Q530.0469 575.7469 530.7344 576.5594Q531.4219 577.3719 531.4219 578.8875L531.4219 579.34064L527.125 579.34064Q527.15625 580.27814 527.6719 580.85626Q528.2031 581.4344 529.0156 581.4344Q529.5781 581.4344 529.96875 581.2Q530.375 580.96564 530.6875 580.575L531.34375 581.09064Q530.5469 582.325 528.9531 582.325ZM528.8125 576.6375Q528.15625 576.6375 527.7031 577.1219Q527.2656 577.59064 527.1719 578.45L530.34375 578.45L530.34375 578.3719Q530.2969 577.54376 529.8906 577.09064Q529.5 576.6375 528.8125 576.6375ZM533.34375 575.85626L533.375 576.65314Q534.1094 575.7469 535.28125 575.7469Q537.2969 575.7469 537.3125 578.0125L537.3125 582.2L536.21875 582.2L536.21875 577.9969Q536.21875 577.325 535.90625 576.9969Q535.6094 576.66876 534.9531 576.66876Q534.4219 576.66876 534.0156 576.95Q533.625 577.23126 533.40625 577.6844L533.40625 582.2L532.3281 582.2L532.3281 575.85626L533.34375 575.85626ZM540.7969 574.325L540.7969 575.85626L541.96875 575.85626L541.96875 576.7L540.7969 576.7L540.7969 580.6219Q540.7969 581.0125 540.9531 581.2Q541.1094 581.3875 541.4844 581.3875Q541.6719 581.3875 542.0 581.325L542.0 582.2Q541.5781 582.325 541.1719 582.325Q540.4531 582.325 540.0781 581.8875Q539.7031 581.4344 539.7031 580.6219L539.7031 576.7L538.5469 576.7L538.5469 575.85626L539.7031 575.85626L539.7031 574.325L540.7969 574.325ZM544.5 582.2L543.4219 582.2L543.4219 575.85626L544.5 575.85626L544.5 582.2ZM543.3281 574.1844Q543.3281 573.91876 543.4844 573.73126Q543.65625 573.54376 543.96875 573.54376Q544.28125 573.54376 544.4375 573.73126Q544.6094 573.91876 544.6094 574.1844Q544.6094 574.4344 544.4375 574.6219Q544.28125 574.79376 543.96875 574.79376Q543.65625 574.79376 543.4844 574.6219Q543.3281 574.4344 543.3281 574.1844ZM548.40625 580.73126L549.9844 575.85626L551.09375 575.85626L548.8125 582.2L547.9844 582.2L545.6875 575.85626L546.7969 575.85626L548.40625 580.73126ZM554.9531 582.325Q553.65625 582.325 552.84375 581.48126Q552.0469 580.6219 552.0469 579.2L552.0469 579.0125Q552.0469 578.0594 552.40625 577.325Q552.7656 576.575 553.40625 576.16876Q554.0625 575.7469 554.8125 575.7469Q556.0469 575.7469 556.7344 576.5594Q557.4219 577.3719 557.4219 578.8875L557.4219 579.34064L553.125 579.34064Q553.15625 580.27814 553.6719 580.85626Q554.2031 581.4344 555.0156 581.4344Q555.5781 581.4344 555.96875 581.2Q556.375 580.96564 556.6875 580.575L557.34375 581.09064Q556.5469 582.325 554.9531 582.325ZM554.8125 576.6375Q554.15625 576.6375 553.7031 577.1219Q553.2656 577.59064 553.1719 578.45L556.34375 578.45L556.34375 578.3719Q556.2969 577.54376 555.8906 577.09064Q555.5 576.6375 554.8125 576.6375Z" fill-rule="nonzero"/><path fill="#ffffff" d="M585.5 577.7C585.5 581.01373 582.8137 583.7 579.5 583.7C576.1863 583.7 573.5 581.01373 573.5 577.7C573.5 574.3863 576.1863 571.7 579.5 571.7C582.8137 571.7 585.5 574.3863 585.5 577.7Z" fill-rule="nonzero"/><path fill="#ffffff" d="M599.7969 582.2L594.2031 582.2L594.2031 581.41876L597.15625 578.1375Q597.8125 577.3875 598.0625 576.9344Q598.3125 576.46564 598.3125 575.96564Q598.3125 575.29376 597.90625 574.8719Q597.5156 574.4344 596.8281 574.4344Q596.03125 574.4344 595.5781 574.90314Q595.125 575.35626 595.125 576.1844L594.0469 576.1844Q594.0469 574.9969 594.7969 574.27814Q595.5625 573.54376 596.8281 573.54376Q598.03125 573.54376 598.71875 574.16876Q599.40625 574.79376 599.40625 575.84064Q599.40625 577.09064 597.7969 578.84064L595.5156 581.3094L599.7969 581.3094L599.7969 582.2ZM601.34375 581.6375Q601.34375 581.35626 601.5 581.16876Q601.6719 580.98126 602.0 580.98126Q602.34375 580.98126 602.5156 581.16876Q602.6875 581.35626 602.6875 581.6375Q602.6875 581.90314 602.5156 582.09064Q602.34375 582.2625 602.0 582.2625Q601.6719 582.2625 601.5 582.09064Q601.34375 581.90314 601.34375 581.6375ZM604.7031 577.91876L605.1406 573.66876L609.5156 573.66876L609.5156 574.66876L606.0625 574.66876L605.7969 576.9969Q606.4375 576.6219 607.2344 576.6219Q608.3906 576.6219 609.0781 577.40314Q609.7656 578.16876 609.7656 579.48126Q609.7656 580.79376 609.0469 581.5594Q608.34375 582.325 607.0625 582.325Q605.9375 582.325 605.21875 581.7Q604.5 581.0594 604.40625 579.95L605.4219 579.95Q605.53125 580.6844 605.9531 581.0594Q606.375 581.4344 607.0625 581.4344Q607.8125 581.4344 608.25 580.91876Q608.6875 580.40314 608.6875 579.4969Q608.6875 578.6375 608.21875 578.1219Q607.75 577.60626 606.96875 577.60626Q606.2656 577.60626 605.8594 577.90314L605.5781 578.1375L604.7031 577.91876ZM611.1094 575.3094Q611.1094 574.54376 611.59375 574.04376Q612.09375 573.54376 612.8594 573.54376Q613.6406 573.54376 614.125 574.04376Q614.6094 574.54376 614.6094 575.34064L614.6094 575.7625Q614.6094 576.52814 614.1094 577.02814Q613.625 577.5125 612.875 577.5125Q612.1094 577.5125 611.6094 577.02814Q611.1094 576.52814 611.1094 575.71564L611.1094 575.3094ZM611.9219 575.7625Q611.9219 576.21564 612.1719 576.5125Q612.4375 576.8094 612.875 576.8094Q613.2969 576.8094 613.5469 576.52814Q613.7969 576.23126 613.7969 575.73126L613.7969 575.3094Q613.7969 574.85626 613.5469 574.5594Q613.2969 574.2469 612.8594 574.2469Q612.4219 574.2469 612.1719 574.5594Q611.9219 574.85626 611.9219 575.325L611.9219 575.7625ZM615.2656 580.10626Q615.2656 579.34064 615.75 578.85626Q616.25 578.35626 617.0156 578.35626Q617.78125 578.35626 618.2656 578.85626Q618.7656 579.34064 618.7656 580.15314L618.7656 580.5594Q618.7656 581.325 618.28125 581.825Q617.7969 582.325 617.03125 582.325Q616.2656 582.325 615.7656 581.84064Q615.2656 581.34064 615.2656 580.52814L615.2656 580.10626ZM616.0781 580.5594Q616.0781 581.02814 616.3281 581.325Q616.59375 581.6219 617.03125 581.6219Q617.4531 581.6219 617.7031 581.34064Q617.9531 581.04376 617.9531 580.54376L617.9531 580.10626Q617.9531 579.6375 617.6875 579.35626Q617.4375 579.0594 617.0156 579.0594Q616.59375 579.0594 616.3281 579.35626Q616.0781 579.6375 616.0781 580.1375L616.0781 580.5594ZM613.125 581.5594L612.5 581.16876L616.6719 574.4969L617.28125 574.8875L613.125 581.5594ZM628.3125 578.2625L624.6094 578.2625L624.6094 581.27814L628.90625 581.27814L628.90625 582.2L623.4844 582.2L623.4844 573.66876L628.8594 573.66876L628.8594 574.59064L624.6094 574.59064L624.6094 577.34064L628.3125 577.34064L628.3125 578.2625ZM631.34375 575.85626L631.375 576.5594Q632.0625 575.7469 633.25 575.7469Q634.5781 575.7469 635.0625 576.7625Q635.375 576.3094 635.875 576.02814Q636.3906 575.7469 637.0781 575.7469Q639.1719 575.7469 639.2031 577.95L639.2031 582.2L638.125 582.2L638.125 578.0125Q638.125 577.34064 637.8125 577.0125Q637.5 576.66876 636.7656 576.66876Q636.15625 576.66876 635.75 577.02814Q635.3594 577.3875 635.2969 577.9969L635.2969 582.2L634.21875 582.2L634.21875 578.04376Q634.21875 576.66876 632.8594 576.66876Q631.7969 576.66876 631.40625 577.575L631.40625 582.2L630.3125 582.2L630.3125 575.85626L631.34375 575.85626ZM646.6875 579.10626Q646.6875 580.5594 646.0156 581.45Q645.3594 582.325 644.2344 582.325Q643.03125 582.325 642.375 581.46564L642.3125 582.2L641.3281 582.2L641.3281 573.2L642.40625 573.2L642.40625 576.5594Q643.0625 575.7469 644.21875 575.7469Q645.375 575.7469 646.03125 576.6219Q646.6875 577.48126 646.6875 579.0125L646.6875 579.10626ZM645.6094 578.98126Q645.6094 577.8719 645.1719 577.27814Q644.75 576.66876 643.9531 576.66876Q642.875 576.66876 642.40625 577.65314L642.40625 580.40314Q642.90625 581.40314 643.9531 581.40314Q644.7344 581.40314 645.1719 580.79376Q645.6094 580.1844 645.6094 578.98126ZM652.2344 582.2Q652.1406 582.0125 652.0781 581.52814Q651.3281 582.325 650.28125 582.325Q649.34375 582.325 648.7344 581.79376Q648.1406 581.2625 648.1406 580.4344Q648.1406 579.45 648.8906 578.90314Q649.6406 578.35626 651.0156 578.35626L652.0625 578.35626L652.0625 577.85626Q652.0625 577.29376 651.71875 576.96564Q651.3906 576.6219 650.71875 576.6219Q650.1406 576.6219 649.75 576.91876Q649.3594 577.2 649.3594 577.6219L648.2656 577.6219Q648.2656 577.1375 648.59375 576.7Q648.9375 576.2625 649.5156 576.0125Q650.09375 575.7469 650.78125 575.7469Q651.8906 575.7469 652.5 576.29376Q653.125 576.84064 653.15625 577.79376L653.15625 580.71564Q653.15625 581.59064 653.375 582.10626L653.375 582.2L652.2344 582.2ZM650.4375 581.3719Q650.9531 581.3719 651.40625 581.10626Q651.8594 580.84064 652.0625 580.41876L652.0625 579.1219L651.21875 579.1219Q649.21875 579.1219 649.21875 580.29376Q649.21875 580.79376 649.5625 581.09064Q649.90625 581.3719 650.4375 581.3719ZM656.5 582.2L655.4219 582.2L655.4219 573.2L656.5 573.2L656.5 582.2ZM659.34375 575.85626L659.375 576.5594Q660.0625 575.7469 661.25 575.7469Q662.5781 575.7469 663.0625 576.7625Q663.375 576.3094 663.875 576.02814Q664.3906 575.7469 665.0781 575.7469Q667.1719 575.7469 667.2031 577.95L667.2031 582.2L666.125 582.2L666.125 578.0125Q666.125 577.34064 665.8125 577.0125Q665.5 576.66876 664.7656 576.66876Q664.15625 576.66876 663.75 577.02814Q663.3594 577.3875 663.2969 577.9969L663.2969 582.2L662.21875 582.2L662.21875 578.04376Q662.21875 576.66876 660.8594 576.66876Q659.7969 576.66876 659.40625 577.575L659.40625 582.2L658.3125 582.2L658.3125 575.85626L659.34375 575.85626ZM671.9531 582.325Q670.65625 582.325 669.84375 581.48126Q669.0469 580.6219 669.0469 579.2L669.0469 579.0125Q669.0469 578.0594 669.40625 577.325Q669.7656 576.575 670.40625 576.16876Q671.0625 575.7469 671.8125 575.7469Q673.0469 575.7469 673.7344 576.5594Q674.4219 577.3719 674.4219 578.8875L674.4219 579.34064L670.125 579.34064Q670.15625 580.27814 670.6719 580.85626Q671.2031 581.4344 672.0156 581.4344Q672.5781 581.4344 672.96875 581.2Q673.375 580.96564 673.6875 580.575L674.34375 581.09064Q673.5469 582.325 671.9531 582.325ZM671.8125 576.6375Q671.15625 576.6375 670.7031 577.1219Q670.2656 577.59064 670.1719 578.45L673.34375 578.45L673.34375 578.3719Q673.2969 577.54376 672.8906 577.09064Q672.5 576.6375 671.8125 576.6375ZM678.3906 576.825Q678.1406 576.79376 677.8594 576.79376Q676.78125 576.79376 676.40625 577.7L676.40625 582.2L675.3281 582.2L675.3281 575.85626L676.375 575.85626L676.3906 576.59064Q676.9219 575.7469 677.90625 575.7469Q678.21875 575.7469 678.3906 575.825L678.3906 576.825ZM688.7969 581.075Q688.3594 581.7 687.5781 582.0125Q686.7969 582.325 685.7656 582.325Q684.7344 582.325 683.9219 581.84064Q683.1094 581.34064 682.6719 580.4344Q682.2344 579.52814 682.21875 578.34064L682.21875 577.60626Q682.21875 575.66876 683.1094 574.60626Q684.0156 573.54376 685.6406 573.54376Q686.9844 573.54376 687.7969 574.23126Q688.6094 574.91876 688.7969 576.16876L687.6719 576.16876Q687.34375 574.48126 685.65625 574.48126Q684.5156 574.48126 683.9375 575.27814Q683.3594 576.0594 683.34375 577.575L683.34375 578.2625Q683.34375 579.7 684.0 580.5594Q684.65625 581.40314 685.78125 581.40314Q686.40625 581.40314 686.875 581.2625Q687.3594 581.1219 687.6719 580.77814L687.6719 578.8719L685.7031 578.8719L685.7031 577.95L688.7969 577.95L688.7969 581.075ZM693.3906 576.825Q693.1406 576.79376 692.8594 576.79376Q691.78125 576.79376 691.40625 577.7L691.40625 582.2L690.3281 582.2L690.3281 575.85626L691.375 575.85626L691.3906 576.59064Q691.9219 575.7469 692.90625 575.7469Q693.21875 575.7469 693.3906 575.825L693.3906 576.825ZM698.2344 582.2Q698.1406 582.0125 698.0781 581.52814Q697.3281 582.325 696.28125 582.325Q695.34375 582.325 694.7344 581.79376Q694.1406 581.2625 694.1406 580.4344Q694.1406 579.45 694.8906 578.90314Q695.6406 578.35626 697.0156 578.35626L698.0625 578.35626L698.0625 577.85626Q698.0625 577.29376 697.71875 576.96564Q697.3906 576.6219 696.71875 576.6219Q696.1406 576.6219 695.75 576.91876Q695.3594 577.2 695.3594 577.6219L694.2656 577.6219Q694.2656 577.1375 694.59375 576.7Q694.9375 576.2625 695.5156 576.0125Q696.09375 575.7469 696.78125 575.7469Q697.8906 575.7469 698.5 576.29376Q699.125 576.84064 699.15625 577.79376L699.15625 580.71564Q699.15625 581.59064 699.375 582.10626L699.375 582.2L698.2344 582.2ZM696.4375 581.3719Q696.9531 581.3719 697.40625 581.10626Q697.8594 580.84064 698.0625 580.41876L698.0625 579.1219L697.21875 579.1219Q695.21875 579.1219 695.21875 580.29376Q695.21875 580.79376 695.5625 581.09064Q695.90625 581.3719 696.4375 581.3719ZM702.34375 575.85626L702.375 576.65314Q703.1094 575.7469 704.28125 575.7469Q706.2969 575.7469 706.3125 578.0125L706.3125 582.2L705.21875 582.2L705.21875 577.9969Q705.21875 577.325 704.90625 576.9969Q704.6094 576.66876 703.9531 576.66876Q703.4219 576.66876 703.0156 576.95Q702.625 577.23126 702.40625 577.6844L702.40625 582.2L701.3281 582.2L701.3281 575.85626L702.34375 575.85626ZM709.7969 574.325L709.7969 575.85626L710.96875 575.85626L710.96875 576.7L709.7969 576.7L709.7969 580.6219Q709.7969 581.0125 709.9531 581.2Q710.1094 581.3875 710.4844 581.3875Q710.6719 581.3875 711.0 581.325L711.0 582.2Q710.5781 582.325 710.1719 582.325Q709.4531 582.325 709.0781 581.8875Q708.7031 581.4344 708.7031 580.6219L708.7031 576.7L707.5469 576.7L707.5469 575.85626L708.7031 575.85626L708.7031 574.325L709.7969 574.325ZM716.0156 580.5125Q716.0156 580.075 715.6719 579.84064Q715.34375 579.59064 714.5156 579.41876Q713.7031 579.2469 713.21875 578.9969Q712.7344 578.7469 712.5 578.41876Q712.28125 578.075 712.28125 577.60626Q712.28125 576.825 712.9375 576.29376Q713.59375 575.7469 714.625 575.7469Q715.7031 575.7469 716.3594 576.3094Q717.03125 576.85626 717.03125 577.71564L715.9531 577.71564Q715.9531 577.27814 715.5625 576.96564Q715.1875 576.6375 714.625 576.6375Q714.03125 576.6375 713.6875 576.90314Q713.3594 577.15314 713.3594 577.5594Q713.3594 577.95 713.6719 578.15314Q713.9844 578.35626 714.7969 578.54376Q715.6094 578.71564 716.1094 578.96564Q716.6094 579.21564 716.84375 579.575Q717.09375 579.9344 717.09375 580.4344Q717.09375 581.29376 716.40625 581.8094Q715.7344 582.325 714.65625 582.325Q713.8906 582.325 713.2969 582.0594Q712.71875 581.77814 712.3906 581.29376Q712.0625 580.8094 712.0625 580.2469L713.1406 580.2469Q713.1719 580.79376 713.5781 581.1219Q713.9844 581.4344 714.65625 581.4344Q715.2656 581.4344 715.6406 581.1844Q716.0156 580.9344 716.0156 580.5125Z" fill-rule="nonzero"/><path fill="#ffffff" d="M745.5 577.7C745.5 581.01373 742.8137 583.7 739.5 583.7C736.1863 583.7 733.5 581.01373 733.5 577.7C733.5 574.3863 736.1863 571.7 739.5 571.7C742.8137 571.7 745.5 574.3863 745.5 577.7Z" fill-rule="nonzero"/><path fill="#ffffff" d="M759.7969 582.2L754.2031 582.2L754.2031 581.41876L757.15625 578.1375Q757.8125 577.3875 758.0625 576.9344Q758.3125 576.46564 758.3125 575.96564Q758.3125 575.29376 757.90625 574.8719Q757.5156 574.4344 756.8281 574.4344Q756.03125 574.4344 755.5781 574.90314Q755.125 575.35626 755.125 576.1844L754.0469 576.1844Q754.0469 574.9969 754.7969 574.27814Q755.5625 573.54376 756.8281 573.54376Q758.03125 573.54376 758.71875 574.16876Q759.40625 574.79376 759.40625 575.84064Q759.40625 577.09064 757.7969 578.84064L755.5156 581.3094L759.7969 581.3094L759.7969 582.2ZM761.34375 581.6375Q761.34375 581.35626 761.5 581.16876Q761.6719 580.98126 762.0 580.98126Q762.34375 580.98126 762.5156 581.16876Q762.6875 581.35626 762.6875 581.6375Q762.6875 581.90314 762.5156 582.09064Q762.34375 582.2625 762.0 582.2625Q761.6719 582.2625 761.5 582.09064Q761.34375 581.90314 761.34375 581.6375ZM764.7031 577.91876L765.1406 573.66876L769.5156 573.66876L769.5156 574.66876L766.0625 574.66876L765.7969 576.9969Q766.4375 576.6219 767.2344 576.6219Q768.3906 576.6219 769.0781 577.40314Q769.7656 578.16876 769.7656 579.48126Q769.7656 580.79376 769.0469 581.5594Q768.34375 582.325 767.0625 582.325Q765.9375 582.325 765.21875 581.7Q764.5 581.0594 764.40625 579.95L765.4219 579.95Q765.53125 580.6844 765.9531 581.0594Q766.375 581.4344 767.0625 581.4344Q767.8125 581.4344 768.25 580.91876Q768.6875 580.40314 768.6875 579.4969Q768.6875 578.6375 768.21875 578.1219Q767.75 577.60626 766.96875 577.60626Q766.2656 577.60626 765.8594 577.90314L765.5781 578.1375L764.7031 577.91876ZM771.1094 575.3094Q771.1094 574.54376 771.59375 574.04376Q772.09375 573.54376 772.8594 573.54376Q773.6406 573.54376 774.125 574.04376Q774.6094 574.54376 774.6094 575.34064L774.6094 575.7625Q774.6094 576.52814 774.1094 577.02814Q773.625 577.5125 772.875 577.5125Q772.1094 577.5125 771.6094 577.02814Q771.1094 576.52814 771.1094 575.71564L771.1094 575.3094ZM771.9219 575.7625Q771.9219 576.21564 772.1719 576.5125Q772.4375 576.8094 772.875 576.8094Q773.2969 576.8094 773.5469 576.52814Q773.7969 576.23126 773.7969 575.73126L773.7969 575.3094Q773.7969 574.85626 773.5469 574.5594Q773.2969 574.2469 772.8594 574.2469Q772.4219 574.2469 772.1719 574.5594Q771.9219 574.85626 771.9219 575.325L771.9219 575.7625ZM775.2656 580.10626Q775.2656 579.34064 775.75 578.85626Q776.25 578.35626 777.0156 578.35626Q777.78125 578.35626 778.2656 578.85626Q778.7656 579.34064 778.7656 580.15314L778.7656 580.5594Q778.7656 581.325 778.28125 581.825Q777.7969 582.325 777.03125 582.325Q776.2656 582.325 775.7656 581.84064Q775.2656 581.34064 775.2656 580.52814L775.2656 580.10626ZM776.0781 580.5594Q776.0781 581.02814 776.3281 581.325Q776.59375 581.6219 777.03125 581.6219Q777.4531 581.6219 777.7031 581.34064Q777.9531 581.04376 777.9531 580.54376L777.9531 580.10626Q777.9531 579.6375 777.6875 579.35626Q777.4375 579.0594 777.0156 579.0594Q776.59375 579.0594 776.3281 579.35626Q776.0781 579.6375 776.0781 580.1375L776.0781 580.5594ZM773.125 581.5594L772.5 581.16876L776.6719 574.4969L777.28125 574.8875L773.125 581.5594ZM788.2031 579.96564L784.625 579.96564L783.8281 582.2L782.6719 582.2L785.9219 573.66876L786.90625 573.66876L790.1719 582.2L789.0156 582.2L788.2031 579.96564ZM784.96875 579.04376L787.875 579.04376L786.4219 575.0594L784.96875 579.04376ZM794.3906 576.825Q794.1406 576.79376 793.8594 576.79376Q792.78125 576.79376 792.40625 577.7L792.40625 582.2L791.3281 582.2L791.3281 575.85626L792.375 575.85626L792.3906 576.59064Q792.9219 575.7469 793.90625 575.7469Q794.21875 575.7469 794.3906 575.825L794.3906 576.825ZM797.8594 581.4344Q798.4375 581.4344 798.875 581.09064Q799.3125 580.73126 799.3594 580.2L800.3906 580.2Q800.3594 580.7469 800.0 581.2469Q799.65625 581.73126 799.0781 582.02814Q798.5156 582.325 797.8594 582.325Q796.5625 582.325 795.7969 581.46564Q795.0469 580.59064 795.0469 579.09064L795.0469 578.90314Q795.0469 577.98126 795.375 577.2625Q795.71875 576.54376 796.34375 576.15314Q796.9844 575.7469 797.8594 575.7469Q798.9219 575.7469 799.625 576.3875Q800.34375 577.0125 800.3906 578.04376L799.3594 578.04376Q799.3125 577.41876 798.8906 577.02814Q798.46875 576.6375 797.8594 576.6375Q797.03125 576.6375 796.5781 577.23126Q796.125 577.825 796.125 578.95L796.125 579.15314Q796.125 580.2469 796.5781 580.84064Q797.03125 581.4344 797.8594 581.4344ZM802.40625 576.6219Q803.125 575.7469 804.28125 575.7469Q806.2969 575.7469 806.3125 578.0125L806.3125 582.2L805.21875 582.2L805.21875 577.9969Q805.21875 577.325 804.90625 576.9969Q804.6094 576.66876 803.9531 576.66876Q803.4219 576.66876 803.0156 576.95Q802.625 577.23126 802.40625 577.6844L802.40625 582.2L801.3281 582.2L801.3281 573.2L802.40625 573.2L802.40625 576.6219ZM812.2344 582.2Q812.1406 582.0125 812.0781 581.52814Q811.3281 582.325 810.28125 582.325Q809.34375 582.325 808.7344 581.79376Q808.1406 581.2625 808.1406 580.4344Q808.1406 579.45 808.8906 578.90314Q809.6406 578.35626 811.0156 578.35626L812.0625 578.35626L812.0625 577.85626Q812.0625 577.29376 811.71875 576.96564Q811.3906 576.6219 810.71875 576.6219Q810.1406 576.6219 809.75 576.91876Q809.3594 577.2 809.3594 577.6219L808.2656 577.6219Q808.2656 577.1375 808.59375 576.7Q808.9375 576.2625 809.5156 576.0125Q810.09375 575.7469 810.78125 575.7469Q811.8906 575.7469 812.5 576.29376Q813.125 576.84064 813.15625 577.79376L813.15625 580.71564Q813.15625 581.59064 813.375 582.10626L813.375 582.2L812.2344 582.2ZM810.4375 581.3719Q810.9531 581.3719 811.40625 581.10626Q811.8594 580.84064 812.0625 580.41876L812.0625 579.1219L811.21875 579.1219Q809.21875 579.1219 809.21875 580.29376Q809.21875 580.79376 809.5625 581.09064Q809.90625 581.3719 810.4375 581.3719ZM817.9531 582.325Q816.65625 582.325 815.84375 581.48126Q815.0469 580.6219 815.0469 579.2L815.0469 579.0125Q815.0469 578.0594 815.40625 577.325Q815.7656 576.575 816.40625 576.16876Q817.0625 575.7469 817.8125 575.7469Q819.0469 575.7469 819.7344 576.5594Q820.4219 577.3719 820.4219 578.8875L820.4219 579.34064L816.125 579.34064Q816.15625 580.27814 816.6719 580.85626Q817.2031 581.4344 818.0156 581.4344Q818.5781 581.4344 818.96875 581.2Q819.375 580.96564 819.6875 580.575L820.34375 581.09064Q819.5469 582.325 817.9531 582.325ZM817.8125 576.6375Q817.15625 576.6375 816.7031 577.1219Q816.2656 577.59064 816.1719 578.45L819.34375 578.45L819.34375 578.3719Q819.2969 577.54376 818.8906 577.09064Q818.5 576.6375 817.8125 576.6375ZM821.03125 578.96564Q821.03125 578.04376 821.3906 577.29376Q821.7656 576.54376 822.4219 576.15314Q823.0781 575.7469 823.90625 575.7469Q825.2031 575.7469 826.0 576.6375Q826.8125 577.52814 826.8125 579.02814L826.8125 579.10626Q826.8125 580.02814 826.4531 580.7625Q826.09375 581.4969 825.4375 581.91876Q824.78125 582.325 823.9219 582.325Q822.6406 582.325 821.8281 581.4344Q821.03125 580.52814 821.03125 579.04376L821.03125 578.96564ZM822.125 579.10626Q822.125 580.15314 822.6094 580.79376Q823.1094 581.4344 823.9219 581.4344Q824.75 581.4344 825.2344 580.79376Q825.71875 580.1375 825.71875 578.96564Q825.71875 577.9344 825.21875 577.29376Q824.7344 576.6375 823.90625 576.6375Q823.1094 576.6375 822.6094 577.27814Q822.125 577.90314 822.125 579.10626ZM829.5 582.2L828.4219 582.2L828.4219 573.2L829.5 573.2L829.5 582.2ZM831.03125 578.96564Q831.03125 578.04376 831.3906 577.29376Q831.7656 576.54376 832.4219 576.15314Q833.0781 575.7469 833.90625 575.7469Q835.2031 575.7469 836.0 576.6375Q836.8125 577.52814 836.8125 579.02814L836.8125 579.10626Q836.8125 580.02814 836.4531 580.7625Q836.09375 581.4969 835.4375 581.91876Q834.78125 582.325 833.9219 582.325Q832.6406 582.325 831.8281 581.4344Q831.03125 580.52814 831.03125 579.04376L831.03125 578.96564ZM832.125 579.10626Q832.125 580.15314 832.6094 580.79376Q833.1094 581.4344 833.9219 581.4344Q834.75 581.4344 835.2344 580.79376Q835.71875 580.1375 835.71875 578.96564Q835.71875 577.9344 835.21875 577.29376Q834.7344 576.6375 833.90625 576.6375Q833.1094 576.6375 832.6094 577.27814Q832.125 577.90314 832.125 579.10626ZM838.0625 578.98126Q838.0625 577.4969 838.75 576.6219Q839.4375 575.7469 840.5625 575.7469Q841.71875 575.7469 842.375 576.5594L842.4219 575.85626L843.4219 575.85626L843.4219 582.04376Q843.4219 583.27814 842.6875 583.98126Q841.9531 584.7 840.7344 584.7Q840.0469 584.7 839.3906 584.40314Q838.7344 584.10626 838.3906 583.60626L838.9531 582.95Q839.6406 583.8094 840.65625 583.8094Q841.4375 583.8094 841.875 583.35626Q842.3281 582.91876 842.3281 582.10626L842.3281 581.5594Q841.6719 582.325 840.5469 582.325Q839.4375 582.325 838.75 581.4344Q838.0625 580.52814 838.0625 578.98126ZM839.15625 579.10626Q839.15625 580.16876 839.59375 580.79376Q840.03125 581.40314 840.8281 581.40314Q841.84375 581.40314 842.3281 580.46564L842.3281 577.575Q841.8281 576.66876 840.8281 576.66876Q840.0469 576.66876 839.59375 577.27814Q839.15625 577.8875 839.15625 579.10626ZM846.5 582.2L845.4219 582.2L845.4219 575.85626L846.5 575.85626L846.5 582.2ZM845.3281 574.1844Q845.3281 573.91876 845.4844 573.73126Q845.65625 573.54376 845.96875 573.54376Q846.28125 573.54376 846.4375 573.73126Q846.6094 573.91876 846.6094 574.1844Q846.6094 574.4344 846.4375 574.6219Q846.28125 574.79376 845.96875 574.79376Q845.65625 574.79376 845.4844 574.6219Q845.3281 574.4344 845.3281 574.1844ZM852.0156 580.5125Q852.0156 580.075 851.6719 579.84064Q851.34375 579.59064 850.5156 579.41876Q849.7031 579.2469 849.21875 578.9969Q848.7344 578.7469 848.5 578.41876Q848.28125 578.075 848.28125 577.60626Q848.28125 576.825 848.9375 576.29376Q849.59375 575.7469 850.625 575.7469Q851.7031 575.7469 852.3594 576.3094Q853.03125 576.85626 853.03125 577.71564L851.9531 577.71564Q851.9531 577.27814 851.5625 576.96564Q851.1875 576.6375 850.625 576.6375Q850.03125 576.6375 849.6875 576.90314Q849.3594 577.15314 849.3594 577.5594Q849.3594 577.95 849.6719 578.15314Q849.9844 578.35626 850.7969 578.54376Q851.6094 578.71564 852.1094 578.96564Q852.6094 579.21564 852.84375 579.575Q853.09375 579.9344 853.09375 580.4344Q853.09375 581.29376 852.40625 581.8094Q851.7344 582.325 850.65625 582.325Q849.8906 582.325 849.2969 582.0594Q848.71875 581.77814 848.3906 581.29376Q848.0625 580.8094 848.0625 580.2469L849.1406 580.2469Q849.1719 580.79376 849.5781 581.1219Q849.9844 581.4344 850.65625 581.4344Q851.2656 581.4344 851.6406 581.1844Q852.0156 580.9344 852.0156 580.5125ZM855.7969 574.325L855.7969 575.85626L856.96875 575.85626L856.96875 576.7L855.7969 576.7L855.7969 580.6219Q855.7969 581.0125 855.9531 581.2Q856.1094 581.3875 856.4844 581.3875Q856.6719 581.3875 857.0 581.325L857.0 582.2Q856.5781 582.325 856.1719 582.325Q855.4531 582.325 855.0781 581.8875Q854.7031 581.4344 854.7031 580.6219L854.7031 576.7L853.5469 576.7L853.5469 575.85626L854.7031 575.85626L854.7031 574.325L855.7969 574.325ZM867.7969 581.075Q867.3594 581.7 866.5781 582.0125Q865.7969 582.325 864.7656 582.325Q863.7344 582.325 862.9219 581.84064Q862.1094 581.34064 861.6719 580.4344Q861.2344 579.52814 861.21875 578.34064L861.21875 577.60626Q861.21875 575.66876 862.1094 574.60626Q863.0156 573.54376 864.6406 573.54376Q865.9844 573.54376 866.7969 574.23126Q867.6094 574.91876 867.7969 576.16876L866.6719 576.16876Q866.34375 574.48126 864.65625 574.48126Q863.5156 574.48126 862.9375 575.27814Q862.3594 576.0594 862.34375 577.575L862.34375 578.2625Q862.34375 579.7 863.0 580.5594Q863.65625 581.40314 864.78125 581.40314Q865.40625 581.40314 865.875 581.2625Q866.3594 581.1219 866.6719 580.77814L866.6719 578.8719L864.7031 578.8719L864.7031 577.95L867.7969 577.95L867.7969 581.075ZM872.3906 576.825Q872.1406 576.79376 871.8594 576.79376Q870.78125 576.79376 870.40625 577.7L870.40625 582.2L869.3281 582.2L869.3281 575.85626L870.375 575.85626L870.3906 576.59064Q870.9219 575.7469 871.90625 575.7469Q872.21875 575.7469 872.3906 575.825L872.3906 576.825ZM877.2344 582.2Q877.1406 582.0125 877.0781 581.52814Q876.3281 582.325 875.28125 582.325Q874.34375 582.325 873.7344 581.79376Q873.1406 581.2625 873.1406 580.4344Q873.1406 579.45 873.8906 578.90314Q874.6406 578.35626 876.0156 578.35626L877.0625 578.35626L877.0625 577.85626Q877.0625 577.29376 876.71875 576.96564Q876.3906 576.6219 875.71875 576.6219Q875.1406 576.6219 874.75 576.91876Q874.3594 577.2 874.3594 577.6219L873.2656 577.6219Q873.2656 577.1375 873.59375 576.7Q873.9375 576.2625 874.5156 576.0125Q875.09375 575.7469 875.78125 575.7469Q876.8906 575.7469 877.5 576.29376Q878.125 576.84064 878.15625 577.79376L878.15625 580.71564Q878.15625 581.59064 878.375 582.10626L878.375 582.2L877.2344 582.2ZM875.4375 581.3719Q875.9531 581.3719 876.40625 581.10626Q876.8594 580.84064 877.0625 580.41876L877.0625 579.1219L876.21875 579.1219Q874.21875 579.1219 874.21875 580.29376Q874.21875 580.79376 874.5625 581.09064Q874.90625 581.3719 875.4375 581.3719ZM881.34375 575.85626L881.375 576.65314Q882.1094 575.7469 883.28125 575.7469Q885.2969 575.7469 885.3125 578.0125L885.3125 582.2L884.21875 582.2L884.21875 577.9969Q884.21875 577.325 883.90625 576.9969Q883.6094 576.66876 882.9531 576.66876Q882.4219 576.66876 882.0156 576.95Q881.625 577.23126 881.40625 577.6844L881.40625 582.2L880.3281 582.2L880.3281 575.85626L881.34375 575.85626ZM888.7969 574.325L888.7969 575.85626L889.96875 575.85626L889.96875 576.7L888.7969 576.7L888.7969 580.6219Q888.7969 581.0125 888.9531 581.2Q889.1094 581.3875 889.4844 581.3875Q889.6719 581.3875 890.0 581.325L890.0 582.2Q889.5781 582.325 889.1719 582.325Q888.4531 582.325 888.0781 581.8875Q887.7031 581.4344 887.7031 580.6219L887.7031 576.7L886.5469 576.7L886.5469 575.85626L887.7031 575.85626L887.7031 574.325L888.7969 574.325ZM895.0156 580.5125Q895.0156 580.075 894.6719 579.84064Q894.34375 579.59064 893.5156 579.41876Q892.7031 579.2469 892.21875 578.9969Q891.7344 578.7469 891.5 578.41876Q891.28125 578.075 891.28125 577.60626Q891.28125 576.825 891.9375 576.29376Q892.59375 575.7469 893.625 575.7469Q894.7031 575.7469 895.3594 576.3094Q896.03125 576.85626 896.03125 577.71564L894.9531 577.71564Q894.9531 577.27814 894.5625 576.96564Q894.1875 576.6375 893.625 576.6375Q893.03125 576.6375 892.6875 576.90314Q892.3594 577.15314 892.3594 577.5594Q892.3594 577.95 892.6719 578.15314Q892.9844 578.35626 893.7969 578.54376Q894.6094 578.71564 895.1094 578.96564Q895.6094 579.21564 895.84375 579.575Q896.09375 579.9344 896.09375 580.4344Q896.09375 581.29376 895.40625 581.8094Q894.7344 582.325 893.65625 582.325Q892.8906 582.325 892.2969 582.0594Q891.71875 581.77814 891.3906 581.29376Q891.0625 580.8094 891.0625 580.2469L892.1406 580.2469Q892.1719 580.79376 892.5781 581.1219Q892.9844 581.4344 893.65625 581.4344Q894.2656 581.4344 894.6406 581.1844Q895.0156 580.9344 895.0156 580.5125Z" fill-rule="nonzero"/></svg>