<svg xmlns="http://www.w3.org/2000/svg" xmlns:xlink="http://www.w3.org/1999/xlink" xmlns:lucid="lucid" width="1160" height="999.61"><g transform="translate(-180 264.6076388888889)" lucid:page-tab-id="0_0"><path d="M200 200h200v160H200z" stroke="#fff" fill-opacity="0"/><use xlink:href="#a" transform="matrix(1,0,0,1,205,205) translate(24.988606770833343 80.06401909722221)"/><use xlink:href="#b" transform="matrix(1,0,0,1,205,205) translate(109.00227864583334 80.06401909722221)"/><use xlink:href="#c" transform="matrix(1,0,0,1,205,205) translate(127.67198350694446 80.06401909722221)"/><path d="M820 200h240v160H820z" stroke="#fff" fill-opacity="0"/><use xlink:href="#d" transform="matrix(1,0,0,1,825,205) translate(54.823459201388886 80.06401909722221)"/><path d="M340 0h60v36l-30 24-30-24z" stroke="#fff" fill-opacity="0"/><use xlink:href="#e" transform="matrix(1,0,0,1,345,5) translate(4.996744791666664 12.376302083333334)"/><use xlink:href="#f" transform="matrix(1,0,0,1,345,5) translate(4.996744791666664 27.897135416666668)"/><path d="M580 228.6h60v39.6l-30 26.4-30-26.4z" stroke="#fff" fill-opacity="0"/><use xlink:href="#e" transform="matrix(1,0,0,1,585,233.60000000000014) translate(4.996744791666664 12.376302083333334)"/><use xlink:href="#f" transform="matrix(1,0,0,1,585,233.60000000000014) translate(4.996744791666664 27.897135416666668)"/><path d="M200-200h200v100H200z" stroke="#fff" fill-opacity="0"/><use xlink:href="#g" transform="matrix(1,0,0,1,205,-195) translate(20.32118055555557 42.56401909722222)"/><use xlink:href="#b" transform="matrix(1,0,0,1,205,-195) translate(95.00000000000001 42.56401909722222)"/><use xlink:href="#h" transform="matrix(1,0,0,1,205,-195) translate(113.66970486111111 42.56401909722222)"/><use xlink:href="#i" transform="matrix(1,0,0,1,205,-195) translate(160.34396701388889 42.56401909722222)"/><use xlink:href="#j" transform="matrix(1,0,0,1,205,-195) translate(52.9931640625 60.67165798611111)"/><path d="M270 0h60v36l-30 24-30-24z" stroke="#fff" fill-opacity="0"/><use xlink:href="#k" transform="matrix(1,0,0,1,275,5) translate(8.997395833333332 12.376302083333334)"/><use xlink:href="#l" transform="matrix(1,0,0,1,275,5) translate(12.998046875 27.897135416666668)"/><path d="M401 261.7h22v-.1h140.12" stroke="#fff" fill="none"/><path d="M401 262.2h-.5v-1h.5z" fill="#fff"/><path d="M577.88 261.6l-14.26 4.64v-9.28z" stroke="#fff" fill="#fff"/><path d="M819 311.37v1H712.68v-1zm-311.68-.02v1h-90.44v-1zM819.5 312.37h-.5v-1h.5zM416.38 316.48l-14.26-4.64 14.26-4.63z" fill="#fff"/><path d="M416.88 317.17l-16.38-5.33 16.38-5.32zm-13.14-5.33l12.14 3.95v-7.9z" fill="#fff"/><use xlink:href="#m" transform="matrix(1,0,0,1,507.3166232638889,302.8008569322843) translate(0 14.43901909722222)"/><use xlink:href="#n" transform="matrix(1,0,0,1,507.3166232638889,302.8008569322843) translate(9.334852430555554 14.43901909722222)"/><use xlink:href="#o" transform="matrix(1,0,0,1,507.3166232638889,302.8008569322843) translate(130.68793402777777 14.43901909722222)"/><path d="M820-200h240v100H820z" stroke="#fff" fill-opacity="0"/><use xlink:href="#g" transform="matrix(1,0,0,1,825,-195) translate(40.32118055555557 42.56401909722222)"/><use xlink:href="#b" transform="matrix(1,0,0,1,825,-195) translate(115.00000000000001 42.56401909722222)"/><use xlink:href="#h" transform="matrix(1,0,0,1,825,-195) translate(133.66970486111111 42.56401909722222)"/><use xlink:href="#i" transform="matrix(1,0,0,1,825,-195) translate(180.34396701388889 42.56401909722222)"/><use xlink:href="#j" transform="matrix(1,0,0,1,825,-195) translate(72.9931640625 60.67165798611111)"/><path d="M870 0h60v36l-30 24-30-24z" stroke="#fff" fill-opacity="0"/><use xlink:href="#p" transform="matrix(1,0,0,1,875,5) translate(12.998046875 12.376302083333334)"/><use xlink:href="#q" transform="matrix(1,0,0,1,875,5) translate(4.996744791666664 27.897135416666668)"/><path d="M800 0h60v36l-30 24-30-24z" stroke="#fff" fill-opacity="0"/><use xlink:href="#r" transform="matrix(1,0,0,1,805,5) translate(16.998697916666664 12.376302083333334)"/><use xlink:href="#q" transform="matrix(1,0,0,1,805,5) translate(4.996744791666664 27.897135416666668)"/><path d="M940 0h60v36l-30 24-30-24z" stroke="#fff" fill-opacity="0"/><use xlink:href="#s" transform="matrix(1,0,0,1,945,5) translate(12.998046875 12.376302083333334)"/><use xlink:href="#q" transform="matrix(1,0,0,1,945,5) translate(4.996744791666664 27.897135416666668)"/><path d="M1010 0h60v36l-30 24-30-24z" stroke="#fff" fill-opacity="0"/><use xlink:href="#t" transform="matrix(1,0,0,1,1015,5) translate(12.998046875 12.376302083333334)"/><use xlink:href="#q" transform="matrix(1,0,0,1,1015,5) translate(4.996744791666664 27.897135416666668)"/><path d="M729 0h60v39.6L759 66l-30-26.4z" stroke="#fff" fill-opacity="0"/><use xlink:href="#u" transform="matrix(1,0,0,1,734,5) translate(4.996744791666664 12.376302083333334)"/><use xlink:href="#q" transform="matrix(1,0,0,1,734,5) translate(4.996744791666664 27.897135416666668)"/><path d="M819 237.37h-60V83.05" stroke="#fff" fill="none"/><path d="M819.5 237.87h-.5v-1h.5z" fill="#fff"/><path d="M759 68.28l4.64 14.27h-9.28z" stroke="#fff" fill="#fff"/><path d="M759-1v-149h44.12" stroke="#fff" fill="none"/><path d="M759.5-.5h-1V-1h1z" fill="#fff"/><path d="M817.88-150l-14.26 4.64v-9.28z" stroke="#fff" fill="#fff"/><path d="M200 0h60v36l-30 24-30-24z" stroke="#fff" fill-opacity="0"/><use xlink:href="#v" transform="matrix(1,0,0,1,205,5) translate(12.998046875 12.376302083333334)"/><path d="M354.37-216.88h-1v-1h1zm518.64 0h-1v-1h1zm-518.63-5.02h-1v-2h1zm518.64 0h-1v-2h1zm-518.63-6.02h-1v-2h1zm518.64 0h-1v-2h1zm-518.63-6.02h-1v-2h1zm518.64 0h-1v-2h1zM355.34-240h-.96v.04h-1V-241h1.96zm517.68.04h-1v-.04h-.96v-1H873zM361.36-240h-2v-1h2zm6.02 0h-2v-1h2zm6.02 0h-2v-1h2zm6 0h-2v-1h2zm6.03 0h-2v-1h2zm6.02 0h-2v-1h2zm6.02 0h-2v-1h2zm6.02 0h-2v-1h2zm6 0h-2v-1h2zm6.03 0h-2v-1h2zm6.02 0h-2v-1h2zm6.02 0h-2v-1h2zm6.02 0h-2v-1h2zm6 0h-2v-1h2zm6.03 0h-2v-1h2zm6.02 0h-2v-1h2zm6.02 0h-2v-1h2zm6.02 0h-2v-1h2zm6 0h-2v-1h2zm6.03 0h-2v-1h2zm6.02 0h-2v-1h2zm6.02 0h-2v-1h2zm6.02 0h-2v-1h2zm6 0h-2v-1h2zm6.03 0h-2v-1h2zm4.67 0h-.65v-1h.65zm212.05 0h-2v-1h2zm6.02 0h-2v-1h2zm6.02 0h-2.02v-1h2zm6 0h-2v-1h2zm6.03 0h-2v-1h2zm6.02 0h-2v-1h2zm6.02 0h-2v-1h2zm6.02 0h-2.02v-1h2zm6 0h-2v-1h2zm6.03 0h-2v-1h2zm6.02 0h-2v-1h2zm6.02 0h-2v-1h2zm6.02 0h-2.02v-1h2zm6 0h-2v-1h2zm6.03 0h-2v-1h2zm6.02 0h-2v-1h2zm6.02 0h-2v-1h2zm6.02 0h-2.02v-1h2zm6 0h-2v-1h2zm6.03 0h-2v-1h2zm6.02 0h-2v-1h2zm6.02 0h-2v-1h2zm6.02 0h-2.02v-1h2zm6 0h-2v-1h2zm6.03 0h-2v-1h2zm-150.5 0h-.66v-1h.66zM353.87-202.12l-4.64-14.26h9.27z" fill="#fff"/><path d="M353.87-200.5l-5.33-16.38h10.65zm-3.95-15.38l3.95 12.14 3.94-12.14zM872.5-202.12l-4.63-14.26h9.27z" fill="#fff"/><path d="M872.5-200.5l-5.32-16.38h10.65zm-3.94-15.38l3.95 12.14 3.96-12.14z" fill="#fff"/><use xlink:href="#w" transform="matrix(1,0,0,1,510.50407424428136,-258.6076388888889) translate(0 14.43901909722222)"/><use xlink:href="#x" transform="matrix(1,0,0,1,510.50407424428136,-258.6076388888889) translate(130.68793402777777 14.43901909722222)"/><use xlink:href="#y" transform="matrix(1,0,0,1,510.50407424428136,-258.6076388888889) translate(0 32.54665798611111)"/><use xlink:href="#z" transform="matrix(1,0,0,1,510.50407424428136,-258.6076388888889) translate(93.34852430555556 32.54665798611111)"/><use xlink:href="#A" transform="matrix(1,0,0,1,510.50407424428136,-258.6076388888889) translate(158.69249131944446 32.54665798611111)"/><path d="M1026.5 691c-9.1 0-16.5-7.16-16.5-16 0-7.07 4.47-13.03 11.4-15.22-.4-20.78 27.1-24.78 38.1-16.78 5.5-12 33-8 33 4 16.5-4 33 12 22 32 11 16 0 36-22 28-5.5 10.4-27.5 10.4-33 0-11 8-33 4-33-16z" stroke="#fff" fill-opacity="0"/><use xlink:href="#B" transform="matrix(1,0,0,1,1015,640) translate(17.994791666666664 38.626302083333336)"/><path d="M1158 585c-9.94 0-18-8.95-18-20 0-8.84 4.87-16.3 12.44-19.02C1152 520 1182 515 1194 525c6-15 36-10 36 5 18-5 36 15 24 40 12 20 0 45-24 35-6 13-30 13-36 0-12 10-36 5-36-20z" stroke="#fff" fill-opacity="0"/><use xlink:href="#C" transform="matrix(1,0,0,1,1145,520) translate(22.494791666666664 48.938802083333336)"/><path d="M1218 465c-9.94 0-18-8.95-18-20 0-8.84 4.87-16.3 12.44-19.02C1212 400 1242 395 1254 405c6-15 36-10 36 5 18-5 36 15 24 40 12 20 0 45-24 35-6 13-30 13-36 0-12 10-36 5-36-20z" stroke="#fff" fill-opacity="0"/><use xlink:href="#D" transform="matrix(1,0,0,1,1205,400) translate(11.997838541666669 40.501302083333336)"/><use xlink:href="#E" transform="matrix(1,0,0,1,1205,400) translate(14.493489583333336 56.02213541666667)"/><path d="M901.67 674.5h91.44v1h-92.43v-70.35h1zm0-84.87h-1v-39.85h1zm0-55.37h-1V361h1zM901.67 361h-1v-.5h1zM1007.88 675l-14.27 4.64v-9.28z" fill="#fff"/><path d="M1009.5 675l-16.4 5.32v-10.64zm-15.4 3.95l12.16-3.95-12.15-3.95z" fill="#fff"/><use xlink:href="#F" transform="matrix(1,0,0,1,885.1679840686279,534.2589340607366) translate(0 12.376302083333334)"/><path d="M986.9 564.5h136.22v1h-137.2v-82.54h1zm0-97.06h-1V361h1zM986.9 361h-1v-.5h1zM1137.88 565l-14.26 4.64v-9.28z" fill="#fff"/><path d="M1139.5 565l-16.38 5.32v-10.64zm-15.38 3.95l12.14-3.95-12.14-3.95z" fill="#fff"/><use xlink:href="#F" transform="matrix(1,0,0,1,970.403278186275,467.43831238557146) translate(0 12.376302083333334)"/><path d="M940.5 648.18h83v1h-84v-44.03h1zm0-58.55h-1V376.88h1z" fill="#fff"/><path d="M1023.67 649.18h-.2v-1h.84zM944.64 376.38h-9.28l4.64-14.26z" fill="#fff"/><path d="M945.32 376.88h-10.64L940 360.5zm-9.27-1h7.9L940 363.74z" fill="#fff"/><use xlink:href="#G" transform="matrix(1,0,0,1,895.9928385416666,589.6266067429764) translate(0 12.376302083333334)"/><path d="M1012.48 537.34h13.16v1h-14.16V376.88h1zm139.96 0v1h-38.8v-1z" fill="#fff"/><path d="M1152.8 538.34h-.37v-1h.66zM1016.6 376.38h-9.26l4.64-14.26z" fill="#fff"/><path d="M1017.3 376.88h-10.65l5.33-16.38zm-9.27-1h7.9l-3.95-12.14z" fill="#fff"/><use xlink:href="#G" transform="matrix(1,0,0,1,1025.636672300272,530.0808416254235) translate(0 12.376302083333334)"/><path d="M1228.97 401.04h-1v-63.9h-46.65v-1h47.65zm-152.1-63.9v-1h48.44v1z" fill="#fff"/><path d="M1228.97 401.38l-1 .33v-.67h1zM1076.38 341.27l-14.26-4.64 14.26-4.63z" fill="#fff"/><path d="M1076.88 341.95l-16.38-5.32 16.38-5.32zm-13.14-5.32l12.14 3.95v-7.9z" fill="#fff"/><use xlink:href="#H" transform="matrix(1,0,0,1,1125.3145534193693,328.8706064356441) translate(0 12.376302083333334)"/><path d="M1272.62 379.14h-1V301.5h-88.03v-1h89.02zM1061 301.5v-1h90.6v1zM1061 301.5h-.5v-1h.5zM1272.12 393.9l-4.64-14.26h9.27z" fill="#fff"/><path d="M1272.12 395.53l-5.33-16.4h10.64zm-3.95-15.4l3.95 12.16 3.94-12.16z" fill="#fff"/><use xlink:href="#F" transform="matrix(1,0,0,1,1151.5887541965174,293.23760313531426) translate(0 12.376302083333334)"/><path d="M432 500h96l32 60-32 60h-96l-32-60z" stroke="#fff" fill-opacity="0"/><use xlink:href="#I" transform="matrix(1,0,0,1,405,505) translate(14.323459201388893 59.12651909722222)"/><use xlink:href="#J" transform="matrix(1,0,0,1,405,505) translate(60.997721354166664 59.12651909722222)"/><path d="M641 261.72h89v.07h73.12" stroke="#fff" fill="none"/><path d="M641 262.22h-.5v-1h.5z" fill="#fff"/><path d="M817.88 261.8l-14.26 4.63v-9.27z" stroke="#fff" fill="#fff"/><path d="M1216.5 136c-9.1 0-16.5-8.95-16.5-20 0-8.84 4.47-16.3 11.4-19.02C1211 71 1238.5 66 1249.5 76c5.5-15 33-10 33 5 16.5-5 33 15 22 40 11 20 0 45-22 35-5.5 13-27.5 13-33 0-11 10-33 5-33-20z" stroke="#fff" fill-opacity="0"/><use xlink:href="#K" transform="matrix(1,0,0,1,1205,71) translate(23.00044270833333 40.501302083333336)"/><use xlink:href="#L" transform="matrix(1,0,0,1,1205,71) translate(9.993489583333336 56.02213541666667)"/><path d="M1157.3 269.35H1061v-1h96.3zm109.24 0h-79.64v-1h78.64v-85.77h1zM1061 269.35h-.5v-1h.5zM1270.68 182.08h-9.27l4.64-14.26z" fill="#fff"/><path d="M1271.37 182.58h-10.65l5.32-16.38zm-9.27-1h7.9l-3.96-12.14z" fill="#fff"/><use xlink:href="#M" transform="matrix(1,0,0,1,1157.3117489101508,260.84628099173574) translate(0 10.666666666666668)"/><path d="M1123.08 241.46h-46.2v-1h46.2zm104.7 0h-58.07v-1h57.08v-81.12h1z" fill="#fff"/><path d="M1227.78 159.15v.2h-1v-.82zM1076.38 245.6l-14.26-4.64 14.26-4.63z" fill="#fff"/><path d="M1076.88 246.3l-16.38-5.34 16.38-5.32zm-13.14-5.34l12.14 3.95V237z" fill="#fff"/><use xlink:href="#N" transform="matrix(1,0,0,1,1123.083814938018,232.96198347107457) translate(0 10.666666666666668)"/><path d="M669 527h60v39.6L699 593l-30-26.4z" stroke="#fff" fill-opacity="0"/><use xlink:href="#e" transform="matrix(1,0,0,1,674,532) translate(4.996744791666664 12.376302083333334)"/><use xlink:href="#f" transform="matrix(1,0,0,1,674,532) translate(4.996744791666664 27.897135416666668)"/><path d="M561.07 560h91.05" stroke="#fff" fill="none"/><path d="M561.08 560.5h-.78l.27-.5-.27-.5h.78z" fill="#fff"/><path d="M666.88 560l-14.26 4.64v-9.28z" stroke="#fff" fill="#fff"/><path d="M730 560.12h120.95V376.88" stroke="#fff" fill="none"/><path d="M730 560.62h-.5v-1h.5z" fill="#fff"/><path d="M850.95 362.12l4.64 14.26h-9.28z" stroke="#fff" fill="#fff"/><path d="M669 434h60v39.6L699 500l-30-26.4z" stroke="#fff" fill-opacity="0"/><use xlink:href="#e" transform="matrix(1,0,0,1,674,439) translate(4.996744791666664 12.376302083333334)"/><use xlink:href="#f" transform="matrix(1,0,0,1,674,439) translate(4.996744791666664 27.897135416666668)"/><path d="M819 340.55h-44.5V467h-28.62" stroke="#fff" fill="none"/><path d="M819.5 341.05h-.5v-1h.5z" fill="#fff"/><path d="M731.12 467l14.26-4.64v9.28z" stroke="#fff" fill="#fff"/><path d="M668 467.12h-63.5v55.26h-47.6" stroke="#fff" fill="none"/><path d="M668.5 467.62h-.5v-1h.5z" fill="#fff"/><path d="M542.12 522.38l14.27-4.63v9.27z" stroke="#fff" fill="#fff"/><path d="M1040 61.14v121.98" stroke="#fff" fill="none"/><path d="M1040.5 61.15h-1v-.9l.5.4.5-.4z" fill="#fff"/><path d="M1040 197.88l-4.64-14.26h9.28z" stroke="#fff" fill="#fff"/><path d="M970 61.14v121.98" stroke="#fff" fill="none"/><path d="M970.5 61.15h-1v-.9l.5.4.5-.4z" fill="#fff"/><path d="M970 197.88l-4.64-14.26h9.28z" stroke="#fff" fill="#fff"/><path d="M900 61.14v121.98" stroke="#fff" fill="none"/><path d="M900.5 61.15h-1v-.9l.5.4.5-.4z" fill="#fff"/><path d="M900 197.88l-4.64-14.26h9.28z" stroke="#fff" fill="#fff"/><path d="M830 61.14v121.98" stroke="#fff" fill="none"/><path d="M830.5 61.15h-1v-.9l.5.4.5-.4z" fill="#fff"/><path d="M830 197.88l-4.64-14.26h9.28z" stroke="#fff" fill="#fff"/><path d="M1038.4-99v82.12" stroke="#fff" fill="none"/><path d="M1038.9-99h-1v-.5h1z" fill="#fff"/><path d="M1038.4-2.12l-4.64-14.26h9.28z" stroke="#fff" fill="#fff"/><path d="M968.8-99v82.12" stroke="#fff" fill="none"/><path d="M969.3-99h-1v-.5h1z" fill="#fff"/><path d="M968.8-2.12l-4.64-14.26h9.28z" stroke="#fff" fill="#fff"/><path d="M898.4-99v82.12" stroke="#fff" fill="none"/><path d="M898.9-99h-1v-.5h1z" fill="#fff"/><path d="M898.4-2.12l-4.64-14.26h9.28z" stroke="#fff" fill="#fff"/><path d="M832.8-99v82.12" stroke="#fff" fill="none"/><path d="M833.3-99h-1v-.5h1z" fill="#fff"/><path d="M832.8-2.12l-4.64-14.26h9.28z" stroke="#fff" fill="#fff"/><path d="M230-1v-82.12" stroke="#fff" fill="none"/><path d="M230.5-.5h-1V-1h1z" fill="#fff"/><path d="M230-97.88l4.64 14.26h-9.28z" stroke="#fff" fill="#fff"/><path d="M300-1v-82.12" stroke="#fff" fill="none"/><path d="M300.5-.5h-1V-1h1z" fill="#fff"/><path d="M300-97.88l4.64 14.26h-9.28z" stroke="#fff" fill="#fff"/><path d="M370.4-99v82.12" stroke="#fff" fill="none"/><path d="M370.9-99h-1v-.5h1z" fill="#fff"/><path d="M370.4-2.12l-4.64-14.26h9.28z" stroke="#fff" fill="#fff"/><path d="M370 61.14v121.98" stroke="#fff" fill="none"/><path d="M370.5 61.15h-1v-.9l.5.4.5-.4z" fill="#fff"/><path d="M370 197.88l-4.64-14.26h9.28z" stroke="#fff" fill="#fff"/><path d="M300 199V77.02" stroke="#fff" fill="none"/><path d="M300.5 199.5h-1v-.5h1z" fill="#fff"/><path d="M300 62.26l4.64 14.26h-9.28z" stroke="#fff" fill="#fff"/><path d="M230.4 199V76.7" stroke="#fff" fill="none"/><path d="M230.9 199.5h-1v-.5h1z" fill="#fff"/><path d="M230.4 61.94l4.64 14.26h-9.28z" stroke="#fff" fill="#fff"/><defs><path fill="#fff" d="M1059 0H217v-1462h842v164H403v452h617v162H403v520h656V0" id="O"/><path fill="#fff" d="M977 0v-707c0-97-9-165-27-203s-47-57-88-57c-58 0-100 28-126 83s-40 148-40 278V0H535v-707c0-173-42-260-125-260-56 0-96 26-120 79s-36 160-36 319V0H92v-1098h127l27 148h10c45-112 112-168 201-168 109 0 180 61 213 182h6c51-121 124-182 219-182 85 0 147 30 186 92s58 165 58 309V0H977" id="P"/><path fill="#fff" d="M1092-551c0 322-136 571-430 571-138 0-245-53-322-159h-12L291 0H158v-1556h182c-2 221 6 379-8 602h8c71-109 179-164 322-164 294 0 430 246 430 567zM629-967c-241 0-289 146-289 416 0 151 24 259 70 323s120 97 221 97c181 0 272-141 272-422 0-276-91-414-274-414" id="Q"/><path fill="#fff" d="M596-1118c288 2 430 92 430 366V0H895l-37-152h-8C752-34 680 17 483 20 272 23 135-98 135-307c0-221 170-337 510-348l203-7c15-197-55-305-244-305-98 0-207 27-328 82l-63-137c131-64 258-96 383-96zm-72 991c194 0 325-116 322-311v-99c-251 15-522-6-522 232 0 119 67 178 200 178" id="R"/><path fill="#fff" d="M532-1413l-268-21v-122h451v1413l352 20V0H188v-123l344-20v-1270" id="S"/><path fill="#fff" d="M631-1118c283 0 470 204 465 491v113H322c5 250 120 375 344 375 130 0 253-25 370-76v160C925-5 804 20 672 20c-329 0-539-224-539-561 0-331 182-577 498-577zM326-662h573c0-203-91-305-272-305-183 0-284 102-301 305" id="T"/><path fill="#fff" d="M442-897c93-139 173-221 377-221 79 0 159 15 240 45l-49 166c-82-30-157-45-224-45-221 0-340 134-340 360V0H264v-1098h148l22 201h8" id="U"/><g id="a"><use transform="matrix(0.00759548611111111,0,0,0.00759548611111111,0,0)" xlink:href="#O"/><use transform="matrix(0.00759548611111111,0,0,0.00759548611111111,9.334852430555554,0)" xlink:href="#P"/><use transform="matrix(0.00759548611111111,0,0,0.00759548611111111,18.669704861111107,0)" xlink:href="#Q"/><use transform="matrix(0.00759548611111111,0,0,0.00759548611111111,28.00455729166666,0)" xlink:href="#R"/><use transform="matrix(0.00759548611111111,0,0,0.00759548611111111,37.339409722222214,0)" xlink:href="#S"/><use transform="matrix(0.00759548611111111,0,0,0.00759548611111111,46.67426215277777,0)" xlink:href="#P"/><use transform="matrix(0.00759548611111111,0,0,0.00759548611111111,56.00911458333333,0)" xlink:href="#T"/><use transform="matrix(0.00759548611111111,0,0,0.00759548611111111,65.34396701388889,0)" xlink:href="#U"/></g><path fill="#fff" d="M1016-1462L389 0H211l627-1462h178" id="V"/><use transform="matrix(0.00759548611111111,0,0,0.00759548611111111,0,0)" xlink:href="#V" id="b"/><path fill="#fff" d="M1104-516c1 337-164 537-496 536-322 0-483-180-483-540v-942h186v932c0 258 102 387 307 387 197 0 300-130 300-389v-932h186v948" id="W"/><path fill="#fff" d="M1026-301c0 225-197 321-448 321-165 0-290-23-375-69v-166c129 57 252 86 370 86 183 0 275-54 275-162 0-38-16-71-49-99s-108-63-226-106c-156-57-253-112-293-160s-61-105-61-171c2-338 524-340 789-217l-60 149c-121-48-228-72-319-72-157 0-236 44-236 133 0 41 17 74 51 98s111 57 232 101c141 51 234 101 280 151s70 111 70 183" id="X"/><g id="c"><use transform="matrix(0.00759548611111111,0,0,0.00759548611111111,0,0)" xlink:href="#W"/><use transform="matrix(0.00759548611111111,0,0,0.00759548611111111,9.334852430555554,0)" xlink:href="#X"/><use transform="matrix(0.00759548611111111,0,0,0.00759548611111111,18.669704861111107,0)" xlink:href="#T"/><use transform="matrix(0.00759548611111111,0,0,0.00759548611111111,28.00455729166666,0)" xlink:href="#U"/></g><path fill="#fff" d="M1004 0L860-453H369L223 0H33l483-1468h195L1196 0h-192zM807-618c-63-210-144-435-195-650-51 232-127 431-190 650h385" id="Y"/><path fill="#fff" d="M172-543c0-365 197-575 553-575 119 0 231 20 336 59l-62 158c-100-38-189-57-268-57-247 0-371 138-371 413 0 271 120 406 361 406 105 0 212-21 321-62v160C953 0 843 20 713 20c-347 1-541-210-541-563" id="Z"/><path fill="#fff" d="M887 0v-707c0-173-79-260-238-260-205 0-307 133-307 398V0H160v-1556h182c-2 202 6 416-8 606h10c69-112 181-168 336-168 259 0 389 134 389 401V0H887" id="aa"/><path fill="#fff" d="M1112-551c0 331-186 571-502 571-301 0-495-251-495-571 0-330 184-567 501-567 302 0 496 249 496 567zM614-131c207 0 310-140 310-420 0-277-104-416-312-416-206 0-309 139-309 416 0 280 104 420 311 420" id="ab"/><path fill="#fff" d="M188-739c-1-248 156-381 410-379 57 0 107 7 150 20h378v113l-196 27c43 57 65 128 65 213 2 253-212 385-489 346-67 37-100 82-100 133 0 56 54 84 161 84h187c216-2 358 93 358 297 0 251-188 377-565 377-145 0-255-26-331-80S102 283 102 186c0-141 80-231 240-270-64-31-96-83-96-154 0-75 44-139 133-192-109-41-191-166-191-309zm406 221c149 0 223-77 223-230 0-159-75-239-225-239s-225 81-225 242c0 151 76 227 227 227zm346 649c0-146-78-149-248-149H504c-153 0-230 66-230 198 0 116 90 174 271 174 263 0 395-74 395-223" id="ac"/><path fill="#fff" d="M739-1436c0 71-43 115-106 115-71 0-107-38-107-115 0-76 36-114 107-114s106 38 106 114zM541-954l-269-21v-123h451v955l352 20V0H197v-123l344-20v-811" id="ad"/><path fill="#fff" d="M1020-150v138C933 9 849 20 768 20 527 20 406-95 406-324v-637H139v-94l267-49 77-287h105v293h438v137H588v637c0 130 64 195 192 195 62 0 142-7 240-21" id="ae"/><g id="d"><use transform="matrix(0.00759548611111111,0,0,0.00759548611111111,0,0)" xlink:href="#Y"/><use transform="matrix(0.00759548611111111,0,0,0.00759548611111111,9.334852430555554,0)" xlink:href="#U"/><use transform="matrix(0.00759548611111111,0,0,0.00759548611111111,18.669704861111107,0)" xlink:href="#Z"/><use transform="matrix(0.00759548611111111,0,0,0.00759548611111111,28.00455729166666,0)" xlink:href="#aa"/><use transform="matrix(0.00759548611111111,0,0,0.00759548611111111,37.339409722222214,0)" xlink:href="#R"/><use transform="matrix(0.00759548611111111,0,0,0.00759548611111111,46.67426215277777,0)" xlink:href="#T"/><use transform="matrix(0.00759548611111111,0,0,0.00759548611111111,56.00911458333333,0)" xlink:href="#ab"/><use transform="matrix(0.00759548611111111,0,0,0.00759548611111111,65.34396701388889,0)" xlink:href="#S"/><use transform="matrix(0.00759548611111111,0,0,0.00759548611111111,74.67881944444444,0)" xlink:href="#ab"/><use transform="matrix(0.00759548611111111,0,0,0.00759548611111111,84.013671875,0)" xlink:href="#ac"/><use transform="matrix(0.00759548611111111,0,0,0.00759548611111111,93.34852430555556,0)" xlink:href="#ad"/><use transform="matrix(0.00759548611111111,0,0,0.00759548611111111,102.68337673611111,0)" xlink:href="#X"/><use transform="matrix(0.00759548611111111,0,0,0.00759548611111111,112.01822916666667,0)" xlink:href="#ae"/></g><path fill="#fff" d="M1087-391c0 281-226 411-532 411-177 0-315-23-414-69v-178c141 57 279 86 414 86 233 0 350-80 350-240 0-69-24-123-71-160s-142-82-285-133c-139-49-239-106-299-174s-90-156-90-264c2-252 211-371 481-371 153 0 291 26 416 78l-64 164c-129-52-249-78-360-78-195 0-293 70-293 209 0 68 22 123 66 164s134 85 270 133c164 58 273 119 328 181s83 143 83 241" id="af"/><path fill="#fff" d="M373-604V0H186v-1462h357c347 0 520 138 520 415 0 191-96 322-289 392L1171 0H952L602-604H373zm497-434c0-207-118-263-338-265H373v541h164c215-1 333-70 333-276" id="ag"/><path fill="#fff" d="M326-731c0 353 139 584 471 588 87 0 196-19 327-58v162c-97 39-217 59-358 59-433-1-637-301-637-753 0-438 243-750 668-750 147 0 274 29 383 86l-78 156c-103-52-204-78-305-78-307 1-471 259-471 588" id="ah"/><path fill="#fff" d="M616 20C261 20 84-232 84-735c0-500 178-750 534-750 171 0 301 65 392 195s137 316 137 557-46 426-138 557S786 20 616 20zm0-163c115 0 195-51 254-145 102-163 102-730-2-890-59-92-137-143-250-143-225 0-337 196-337 588 0 393 112 590 335 590" id="ai"/><g id="e"><use transform="matrix(0.006510416666666667,0,0,0.006510416666666667,0,0)" xlink:href="#af"/><use transform="matrix(0.006510416666666667,0,0,0.006510416666666667,8.001302083333334,0)" xlink:href="#Y"/><use transform="matrix(0.006510416666666667,0,0,0.006510416666666667,16.002604166666668,0)" xlink:href="#ag"/><use transform="matrix(0.006510416666666667,0,0,0.006510416666666667,24.00390625,0)" xlink:href="#ah"/><use transform="matrix(0.006510416666666667,0,0,0.006510416666666667,32.005208333333336,0)" xlink:href="#ai"/></g><path fill="#fff" d="M707 0H520v-1298H102v-164h1022v164H707V0" id="aj"/><path fill="#fff" d="M383-553l135-152 395-393h222L641-623 1163 0H950L524-504l-129 82V0H215v-1556h180c-3 337 9 689-16 1003h4" id="ak"/><path fill="#fff" d="M887 0v-707c0-173-79-260-238-260-205 0-307 133-307 398V0H160v-1098h147l27 148h10c69-112 181-168 336-168 259 0 389 134 389 401V0H887" id="al"/><g id="f"><use transform="matrix(0.006510416666666667,0,0,0.006510416666666667,0,0)" xlink:href="#aj"/><use transform="matrix(0.006510416666666667,0,0,0.006510416666666667,8.001302083333334,0)" xlink:href="#ab"/><use transform="matrix(0.006510416666666667,0,0,0.006510416666666667,16.002604166666668,0)" xlink:href="#ak"/><use transform="matrix(0.006510416666666667,0,0,0.006510416666666667,24.00390625,0)" xlink:href="#T"/><use transform="matrix(0.006510416666666667,0,0,0.006510416666666667,32.005208333333336,0)" xlink:href="#al"/></g><path fill="#fff" d="M813 0c-67-308-137-613-199-926h-6C551-608 477-306 408 0H219L-4-1098h162c53 313 118 604 155 936h6c53-329 132-625 201-936h193c63 300 147 629 194 936h6c45-366 103-603 162-936h158L1008 0H813" id="am"/><path fill="#fff" d="M1092-551c0 322-136 571-430 571-138 0-245-53-322-159h-12c24 220 7 402 12 631H158v-1590h147l27 148h8c73-112 181-168 322-168 294 0 430 246 430 567zM629-967c-241 0-288 156-289 416 0 151 24 259 70 323s120 97 221 97c181 0 272-141 272-422 0-276-91-414-274-414" id="an"/><g id="g"><use transform="matrix(0.00759548611111111,0,0,0.00759548611111111,0,0)" xlink:href="#W"/><use transform="matrix(0.00759548611111111,0,0,0.00759548611111111,9.334852430555554,0)" xlink:href="#al"/><use transform="matrix(0.00759548611111111,0,0,0.00759548611111111,18.669704861111107,0)" xlink:href="#ad"/><use transform="matrix(0.00759548611111111,0,0,0.00759548611111111,28.00455729166666,0)" xlink:href="#X"/><use transform="matrix(0.00759548611111111,0,0,0.00759548611111111,37.339409722222214,0)" xlink:href="#am"/><use transform="matrix(0.00759548611111111,0,0,0.00759548611111111,46.67426215277777,0)" xlink:href="#R"/><use transform="matrix(0.00759548611111111,0,0,0.00759548611111111,56.00911458333333,0)" xlink:href="#an"/></g><path fill="#fff" d="M1147-745C1147-274 901 1 436 0H135v-1462h342c429-3 670 280 670 717zm-825-558v1143h96c355 0 532-193 532-579 0-376-164-564-493-564H322" id="ao"/><path fill="#fff" d="M1174 0H963L608-635 242 0H53l453-764-422-698h199l331 559 334-559h191L717-770" id="ap"/><g id="h"><use transform="matrix(0.00759548611111111,0,0,0.00759548611111111,0,0)" xlink:href="#ao"/><use transform="matrix(0.00759548611111111,0,0,0.00759548611111111,9.334852430555554,0)" xlink:href="#O"/><use transform="matrix(0.00759548611111111,0,0,0.00759548611111111,18.669704861111107,0)" xlink:href="#ap"/><use transform="matrix(0.00759548611111111,0,0,0.00759548611111111,28.00455729166666,0)" xlink:href="#X"/></g><use transform="matrix(0.00759548611111111,0,0,0.00759548611111111,0,0)" xlink:href="#V" id="i"/><path fill="#fff" d="M510-563l-393-535h207l290 410 291-410h207L717-563 1130 0H924L614-436 303 0H96" id="aq"/><g id="j"><use transform="matrix(0.00759548611111111,0,0,0.00759548611111111,0,0)" xlink:href="#O"/><use transform="matrix(0.00759548611111111,0,0,0.00759548611111111,9.334852430555554,0)" xlink:href="#aq"/><use transform="matrix(0.00759548611111111,0,0,0.00759548611111111,18.669704861111107,0)" xlink:href="#Z"/><use transform="matrix(0.00759548611111111,0,0,0.00759548611111111,28.00455729166666,0)" xlink:href="#aa"/><use transform="matrix(0.00759548611111111,0,0,0.00759548611111111,37.339409722222214,0)" xlink:href="#R"/><use transform="matrix(0.00759548611111111,0,0,0.00759548611111111,46.67426215277777,0)" xlink:href="#al"/><use transform="matrix(0.00759548611111111,0,0,0.00759548611111111,56.00911458333333,0)" xlink:href="#ac"/><use transform="matrix(0.00759548611111111,0,0,0.00759548611111111,65.34396701388889,0)" xlink:href="#T"/><use transform="matrix(0.00759548611111111,0,0,0.00759548611111111,74.67881944444444,0)" xlink:href="#X"/></g><path fill="#fff" d="M1137-424C1137-153 941 0 662 0H135v-1462c284 7 685-30 837 88 80 62 124 152 124 282 0 179-125 297-291 316v10c221 36 332 150 332 342zm-232-655c0-182-120-224-319-224H322v461h284c195-2 299-53 299-237zM322-686v528h307c207 0 311-91 311-274 0-169-108-254-324-254H322" id="ar"/><g id="k"><use transform="matrix(0.006510416666666667,0,0,0.006510416666666667,0,0)" xlink:href="#ar"/><use transform="matrix(0.006510416666666667,0,0,0.006510416666666667,8.001302083333334,0)" xlink:href="#aj"/><use transform="matrix(0.006510416666666667,0,0,0.006510416666666667,16.002604166666668,0)" xlink:href="#ah"/><use transform="matrix(0.006510416666666667,0,0,0.006510416666666667,24.00390625,0)" xlink:href="#V"/></g><path fill="#fff" d="M1094 0H907v-682H322V0H135v-1462h187v616h585v-616h187V0" id="as"/><g id="l"><use transform="matrix(0.006510416666666667,0,0,0.006510416666666667,0,0)" xlink:href="#O"/><use transform="matrix(0.006510416666666667,0,0,0.006510416666666667,8.001302083333334,0)" xlink:href="#aj"/><use transform="matrix(0.006510416666666667,0,0,0.006510416666666667,16.002604166666668,0)" xlink:href="#as"/></g><path fill="#fff" d="M578-131c239 0 309-137 309-397v-570h182V0H922l-27-147h-10C815-36 704 20 551 20c-261 0-391-134-391-401v-717h182v707c0 173 79 260 236 260" id="at"/><g id="n"><use transform="matrix(0.00759548611111111,0,0,0.00759548611111111,0,0)" xlink:href="#ag"/><use transform="matrix(0.00759548611111111,0,0,0.00759548611111111,9.334852430555554,0)" xlink:href="#T"/><use transform="matrix(0.00759548611111111,0,0,0.00759548611111111,18.669704861111107,0)" xlink:href="#X"/><use transform="matrix(0.00759548611111111,0,0,0.00759548611111111,28.00455729166666,0)" xlink:href="#at"/><use transform="matrix(0.00759548611111111,0,0,0.00759548611111111,37.339409722222214,0)" xlink:href="#U"/><use transform="matrix(0.00759548611111111,0,0,0.00759548611111111,46.67426215277777,0)" xlink:href="#U"/><use transform="matrix(0.00759548611111111,0,0,0.00759548611111111,56.00911458333333,0)" xlink:href="#T"/><use transform="matrix(0.00759548611111111,0,0,0.00759548611111111,65.34396701388889,0)" xlink:href="#Z"/><use transform="matrix(0.00759548611111111,0,0,0.00759548611111111,74.67881944444444,0)" xlink:href="#ae"/><use transform="matrix(0.00759548611111111,0,0,0.00759548611111111,84.013671875,0)" xlink:href="#ad"/><use transform="matrix(0.00759548611111111,0,0,0.00759548611111111,93.34852430555556,0)" xlink:href="#ab"/><use transform="matrix(0.00759548611111111,0,0,0.00759548611111111,102.68337673611111,0)" xlink:href="#al"/></g><path fill="#fff" d="M498 0L82-1098h188l240 652c57 154 90 262 100 325h6c67-256 244-708 340-977h189L729 0H498" id="au"/><g id="o"><use transform="matrix(0.00759548611111111,0,0,0.00759548611111111,0,0)" xlink:href="#af"/><use transform="matrix(0.00759548611111111,0,0,0.00759548611111111,9.334852430555554,0)" xlink:href="#T"/><use transform="matrix(0.00759548611111111,0,0,0.00759548611111111,18.669704861111107,0)" xlink:href="#U"/><use transform="matrix(0.00759548611111111,0,0,0.00759548611111111,28.00455729166666,0)" xlink:href="#au"/><use transform="matrix(0.00759548611111111,0,0,0.00759548611111111,37.339409722222214,0)" xlink:href="#ad"/><use transform="matrix(0.00759548611111111,0,0,0.00759548611111111,46.67426215277777,0)" xlink:href="#Z"/><use transform="matrix(0.00759548611111111,0,0,0.00759548611111111,56.00911458333333,0)" xlink:href="#T"/><use transform="matrix(0.00759548611111111,0,0,0.00759548611111111,65.34396701388889,0)" xlink:href="#X"/></g><g id="p"><use transform="matrix(0.006510416666666667,0,0,0.006510416666666667,0,0)" xlink:href="#O"/><use transform="matrix(0.006510416666666667,0,0,0.006510416666666667,8.001302083333334,0)" xlink:href="#aj"/><use transform="matrix(0.006510416666666667,0,0,0.006510416666666667,16.002604166666668,0)" xlink:href="#as"/></g><g id="q"><use transform="matrix(0.006510416666666667,0,0,0.006510416666666667,0,0)" xlink:href="#aj"/><use transform="matrix(0.006510416666666667,0,0,0.006510416666666667,8.001302083333334,0)" xlink:href="#ab"/><use transform="matrix(0.006510416666666667,0,0,0.006510416666666667,16.002604166666668,0)" xlink:href="#ak"/><use transform="matrix(0.006510416666666667,0,0,0.006510416666666667,24.00390625,0)" xlink:href="#T"/><use transform="matrix(0.006510416666666667,0,0,0.006510416666666667,32.005208333333336,0)" xlink:href="#al"/></g><g id="r"><use transform="matrix(0.006510416666666667,0,0,0.006510416666666667,0,0)" xlink:href="#Y"/><use transform="matrix(0.006510416666666667,0,0,0.006510416666666667,8.001302083333334,0)" xlink:href="#ag"/></g><g id="s"><use transform="matrix(0.006510416666666667,0,0,0.006510416666666667,0,0)" xlink:href="#ao"/><use transform="matrix(0.006510416666666667,0,0,0.006510416666666667,8.001302083333334,0)" xlink:href="#ai"/><use transform="matrix(0.006510416666666667,0,0,0.006510416666666667,16.002604166666668,0)" xlink:href="#aj"/></g><path fill="#fff" d="M614-301c101 0 152 55 152 166S715 31 614 31 463-24 463-135s50-166 151-166" id="av"/><g id="t"><use transform="matrix(0.006510416666666667,0,0,0.006510416666666667,0,0)" xlink:href="#av"/><use transform="matrix(0.006510416666666667,0,0,0.006510416666666667,8.001302083333334,0)" xlink:href="#av"/><use transform="matrix(0.006510416666666667,0,0,0.006510416666666667,16.002604166666668,0)" xlink:href="#av"/></g><g id="u"><use transform="matrix(0.006510416666666667,0,0,0.006510416666666667,0,0)" xlink:href="#af"/><use transform="matrix(0.006510416666666667,0,0,0.006510416666666667,8.001302083333334,0)" xlink:href="#Y"/><use transform="matrix(0.006510416666666667,0,0,0.006510416666666667,16.002604166666668,0)" xlink:href="#ag"/><use transform="matrix(0.006510416666666667,0,0,0.006510416666666667,24.00390625,0)" xlink:href="#ah"/><use transform="matrix(0.006510416666666667,0,0,0.006510416666666667,32.005208333333336,0)" xlink:href="#ai"/></g><g id="v"><use transform="matrix(0.006510416666666667,0,0,0.006510416666666667,0,0)" xlink:href="#W"/><use transform="matrix(0.006510416666666667,0,0,0.006510416666666667,8.001302083333334,0)" xlink:href="#af"/><use transform="matrix(0.006510416666666667,0,0,0.006510416666666667,16.002604166666668,0)" xlink:href="#ao"/></g><g id="w"><use transform="matrix(0.00759548611111111,0,0,0.00759548611111111,0,0)" xlink:href="#Y"/><use transform="matrix(0.00759548611111111,0,0,0.00759548611111111,9.334852430555554,0)" xlink:href="#U"/><use transform="matrix(0.00759548611111111,0,0,0.00759548611111111,18.669704861111107,0)" xlink:href="#Z"/><use transform="matrix(0.00759548611111111,0,0,0.00759548611111111,28.00455729166666,0)" xlink:href="#aa"/><use transform="matrix(0.00759548611111111,0,0,0.00759548611111111,37.339409722222214,0)" xlink:href="#R"/><use transform="matrix(0.00759548611111111,0,0,0.00759548611111111,46.67426215277777,0)" xlink:href="#T"/><use transform="matrix(0.00759548611111111,0,0,0.00759548611111111,56.00911458333333,0)" xlink:href="#ab"/><use transform="matrix(0.00759548611111111,0,0,0.00759548611111111,65.34396701388889,0)" xlink:href="#S"/><use transform="matrix(0.00759548611111111,0,0,0.00759548611111111,74.67881944444444,0)" xlink:href="#ab"/><use transform="matrix(0.00759548611111111,0,0,0.00759548611111111,84.013671875,0)" xlink:href="#ac"/><use transform="matrix(0.00759548611111111,0,0,0.00759548611111111,93.34852430555556,0)" xlink:href="#ad"/><use transform="matrix(0.00759548611111111,0,0,0.00759548611111111,102.68337673611111,0)" xlink:href="#X"/><use transform="matrix(0.00759548611111111,0,0,0.00759548611111111,112.01822916666667,0)" xlink:href="#ae"/></g><path fill="#fff" d="M532 0L254-1280h-8c34 456 12 817 18 1280H113v-1462h247L608-270h6l250-1192h252V0H963c5-467-12-807 14-1278h-8L686 0H532" id="aw"/><g id="x"><use transform="matrix(0.00759548611111111,0,0,0.00759548611111111,0,0)" xlink:href="#aw"/><use transform="matrix(0.00759548611111111,0,0,0.00759548611111111,9.334852430555554,0)" xlink:href="#ad"/><use transform="matrix(0.00759548611111111,0,0,0.00759548611111111,18.669704861111107,0)" xlink:href="#al"/><use transform="matrix(0.00759548611111111,0,0,0.00759548611111111,28.00455729166666,0)" xlink:href="#ad"/><use transform="matrix(0.00759548611111111,0,0,0.00759548611111111,37.339409722222214,0)" xlink:href="#P"/><use transform="matrix(0.00759548611111111,0,0,0.00759548611111111,46.67426215277777,0)" xlink:href="#at"/><use transform="matrix(0.00759548611111111,0,0,0.00759548611111111,56.00911458333333,0)" xlink:href="#P"/><use transform="matrix(0.00759548611111111,0,0,0.00759548611111111,65.34396701388889,0)" xlink:href="#X"/></g><g id="y"><use transform="matrix(0.00759548611111111,0,0,0.00759548611111111,0,0)" xlink:href="#ao"/><use transform="matrix(0.00759548611111111,0,0,0.00759548611111111,9.334852430555554,0)" xlink:href="#T"/><use transform="matrix(0.00759548611111111,0,0,0.00759548611111111,18.669704861111107,0)" xlink:href="#ae"/><use transform="matrix(0.00759548611111111,0,0,0.00759548611111111,28.00455729166666,0)" xlink:href="#T"/><use transform="matrix(0.00759548611111111,0,0,0.00759548611111111,37.339409722222214,0)" xlink:href="#U"/><use transform="matrix(0.00759548611111111,0,0,0.00759548611111111,46.67426215277777,0)" xlink:href="#P"/><use transform="matrix(0.00759548611111111,0,0,0.00759548611111111,56.00911458333333,0)" xlink:href="#ad"/><use transform="matrix(0.00759548611111111,0,0,0.00759548611111111,65.34396701388889,0)" xlink:href="#al"/><use transform="matrix(0.00759548611111111,0,0,0.00759548611111111,74.67881944444444,0)" xlink:href="#T"/></g><g id="z"><use transform="matrix(0.00759548611111111,0,0,0.00759548611111111,0,0)" xlink:href="#aw"/><use transform="matrix(0.00759548611111111,0,0,0.00759548611111111,9.334852430555554,0)" xlink:href="#R"/><use transform="matrix(0.00759548611111111,0,0,0.00759548611111111,18.669704861111107,0)" xlink:href="#U"/><use transform="matrix(0.00759548611111111,0,0,0.00759548611111111,28.00455729166666,0)" xlink:href="#ak"/><use transform="matrix(0.00759548611111111,0,0,0.00759548611111111,37.339409722222214,0)" xlink:href="#T"/><use transform="matrix(0.00759548611111111,0,0,0.00759548611111111,46.67426215277777,0)" xlink:href="#ae"/></g><g id="A"><use transform="matrix(0.00759548611111111,0,0,0.00759548611111111,0,0)" xlink:href="#ag"/><use transform="matrix(0.00759548611111111,0,0,0.00759548611111111,9.334852430555554,0)" xlink:href="#R"/><use transform="matrix(0.00759548611111111,0,0,0.00759548611111111,18.669704861111107,0)" xlink:href="#ae"/><use transform="matrix(0.00759548611111111,0,0,0.00759548611111111,28.00455729166666,0)" xlink:href="#T"/></g><g id="B"><use transform="matrix(0.006510416666666667,0,0,0.006510416666666667,0,0)" xlink:href="#O"/><use transform="matrix(0.006510416666666667,0,0,0.006510416666666667,8.001302083333334,0)" xlink:href="#ae"/><use transform="matrix(0.006510416666666667,0,0,0.006510416666666667,16.002604166666668,0)" xlink:href="#aa"/><use transform="matrix(0.006510416666666667,0,0,0.006510416666666667,24.00390625,0)" xlink:href="#T"/><use transform="matrix(0.006510416666666667,0,0,0.006510416666666667,32.005208333333336,0)" xlink:href="#U"/><use transform="matrix(0.006510416666666667,0,0,0.006510416666666667,40.00651041666667,0)" xlink:href="#T"/><use transform="matrix(0.006510416666666667,0,0,0.006510416666666667,48.00781250000001,0)" xlink:href="#at"/><use transform="matrix(0.006510416666666667,0,0,0.006510416666666667,56.00911458333335,0)" xlink:href="#P"/></g><path fill="#fff" d="M1094-1034c0 310-213 470-541 465H362V0H176v-1462h404c343 0 514 143 514 428zM532-727c244-1 369-71 369-297 0-186-113-279-338-279H362v576h170" id="ax"/><g id="C"><use transform="matrix(0.006510416666666667,0,0,0.006510416666666667,0,0)" xlink:href="#ax"/><use transform="matrix(0.006510416666666667,0,0,0.006510416666666667,8.001302083333334,0)" xlink:href="#ab"/><use transform="matrix(0.006510416666666667,0,0,0.006510416666666667,16.002604166666668,0)" xlink:href="#S"/><use transform="matrix(0.006510416666666667,0,0,0.006510416666666667,24.00390625,0)" xlink:href="#ak"/><use transform="matrix(0.006510416666666667,0,0,0.006510416666666667,32.005208333333336,0)" xlink:href="#R"/><use transform="matrix(0.006510416666666667,0,0,0.006510416666666667,40.00651041666667,0)" xlink:href="#ao"/><use transform="matrix(0.006510416666666667,0,0,0.006510416666666667,48.00781250000001,0)" xlink:href="#ab"/><use transform="matrix(0.006510416666666667,0,0,0.006510416666666667,56.00911458333335,0)" xlink:href="#ae"/></g><path fill="#fff" d="M866-1417c-164 2-207 56-211 215v104h389v137H655V0H473v-961H156v-110l317-33c-17-319 78-463 389-463 86 0 170 12 252 35l-41 143c-69-19-138-28-207-28" id="ay"/><path fill="#fff" d="M137-547c0-322 136-571 430-571 137 0 245 53 322 160h12c-24-215-7-376-12-598h182V0H924l-27-147h-8C814-36 706 20 567 20c-294 0-430-246-430-567zm463 416c241 0 288-157 289-416 0-151-23-259-69-323s-121-97-222-97c-181 0-272 141-272 422 0 276 91 414 274 414" id="az"/><g id="D"><use transform="matrix(0.006510416666666667,0,0,0.006510416666666667,0,0)" xlink:href="#W"/><use transform="matrix(0.006510416666666667,0,0,0.006510416666666667,8.001302083333334,0)" xlink:href="#al"/><use transform="matrix(0.006510416666666667,0,0,0.006510416666666667,16.002604166666668,0)" xlink:href="#X"/><use transform="matrix(0.006510416666666667,0,0,0.006510416666666667,24.00390625,0)" xlink:href="#an"/><use transform="matrix(0.006510416666666667,0,0,0.006510416666666667,32.005208333333336,0)" xlink:href="#T"/><use transform="matrix(0.006510416666666667,0,0,0.006510416666666667,40.00651041666667,0)" xlink:href="#Z"/><use transform="matrix(0.006510416666666667,0,0,0.006510416666666667,48.00781250000001,0)" xlink:href="#ad"/><use transform="matrix(0.006510416666666667,0,0,0.006510416666666667,56.00911458333335,0)" xlink:href="#ay"/><use transform="matrix(0.006510416666666667,0,0,0.006510416666666667,64.01041666666667,0)" xlink:href="#ad"/><use transform="matrix(0.006510416666666667,0,0,0.006510416666666667,72.01171875,0)" xlink:href="#T"/><use transform="matrix(0.006510416666666667,0,0,0.006510416666666667,80.01302083333333,0)" xlink:href="#az"/></g><g id="E"><use transform="matrix(0.006510416666666667,0,0,0.006510416666666667,0,0)" xlink:href="#ar"/><use transform="matrix(0.006510416666666667,0,0,0.006510416666666667,8.001302083333334,0)" xlink:href="#S"/><use transform="matrix(0.006510416666666667,0,0,0.006510416666666667,16.002604166666668,0)" xlink:href="#ab"/><use transform="matrix(0.006510416666666667,0,0,0.006510416666666667,24.00390625,0)" xlink:href="#Z"/><use transform="matrix(0.006510416666666667,0,0,0.006510416666666667,32.005208333333336,0)" xlink:href="#ak"/><use transform="matrix(0.006510416666666667,0,0,0.006510416666666667,40.00651041666667,0)" xlink:href="#Z"/><use transform="matrix(0.006510416666666667,0,0,0.006510416666666667,48.00781250000001,0)" xlink:href="#aa"/><use transform="matrix(0.006510416666666667,0,0,0.006510416666666667,56.00911458333335,0)" xlink:href="#R"/><use transform="matrix(0.006510416666666667,0,0,0.006510416666666667,64.01041666666667,0)" xlink:href="#ad"/><use transform="matrix(0.006510416666666667,0,0,0.006510416666666667,72.01171875,0)" xlink:href="#al"/></g><path fill="#fff" d="M430 0H244v-1462h841v164H430v516h617v164H430V0" id="aA"/><g id="F"><use transform="matrix(0.006510416666666667,0,0,0.006510416666666667,0,0)" xlink:href="#aA"/><use transform="matrix(0.006510416666666667,0,0,0.006510416666666667,8.001302083333334,0)" xlink:href="#T"/><use transform="matrix(0.006510416666666667,0,0,0.006510416666666667,16.002604166666668,0)" xlink:href="#T"/><use transform="matrix(0.006510416666666667,0,0,0.006510416666666667,24.00390625,0)" xlink:href="#X"/></g><g id="G"><use transform="matrix(0.006510416666666667,0,0,0.006510416666666667,0,0)" xlink:href="#ah"/><use transform="matrix(0.006510416666666667,0,0,0.006510416666666667,8.001302083333334,0)" xlink:href="#ab"/><use transform="matrix(0.006510416666666667,0,0,0.006510416666666667,16.002604166666668,0)" xlink:href="#al"/><use transform="matrix(0.006510416666666667,0,0,0.006510416666666667,24.00390625,0)" xlink:href="#ae"/><use transform="matrix(0.006510416666666667,0,0,0.006510416666666667,32.005208333333336,0)" xlink:href="#U"/><use transform="matrix(0.006510416666666667,0,0,0.006510416666666667,40.00651041666667,0)" xlink:href="#R"/><use transform="matrix(0.006510416666666667,0,0,0.006510416666666667,48.00781250000001,0)" xlink:href="#Z"/><use transform="matrix(0.006510416666666667,0,0,0.006510416666666667,56.00911458333335,0)" xlink:href="#ae"/><use transform="matrix(0.006510416666666667,0,0,0.006510416666666667,64.01041666666667,0)" xlink:href="#ad"/><use transform="matrix(0.006510416666666667,0,0,0.006510416666666667,72.01171875,0)" xlink:href="#al"/><use transform="matrix(0.006510416666666667,0,0,0.006510416666666667,80.01302083333333,0)" xlink:href="#ac"/></g><g id="H"><use transform="matrix(0.006510416666666667,0,0,0.006510416666666667,0,0)" xlink:href="#af"/><use transform="matrix(0.006510416666666667,0,0,0.006510416666666667,8.001302083333334,0)" xlink:href="#T"/><use transform="matrix(0.006510416666666667,0,0,0.006510416666666667,16.002604166666668,0)" xlink:href="#U"/><use transform="matrix(0.006510416666666667,0,0,0.006510416666666667,24.00390625,0)" xlink:href="#au"/><use transform="matrix(0.006510416666666667,0,0,0.006510416666666667,32.005208333333336,0)" xlink:href="#ad"/><use transform="matrix(0.006510416666666667,0,0,0.006510416666666667,40.00651041666667,0)" xlink:href="#Z"/><use transform="matrix(0.006510416666666667,0,0,0.006510416666666667,48.00781250000001,0)" xlink:href="#T"/></g><g id="I"><use transform="matrix(0.00759548611111111,0,0,0.00759548611111111,0,0)" xlink:href="#ar"/><use transform="matrix(0.00759548611111111,0,0,0.00759548611111111,9.334852430555554,0)" xlink:href="#ab"/><use transform="matrix(0.00759548611111111,0,0,0.00759548611111111,18.669704861111107,0)" xlink:href="#al"/><use transform="matrix(0.00759548611111111,0,0,0.00759548611111111,28.00455729166666,0)" xlink:href="#az"/></g><g id="J"><use transform="matrix(0.00759548611111111,0,0,0.00759548611111111,0,0)" xlink:href="#ah"/><use transform="matrix(0.00759548611111111,0,0,0.00759548611111111,9.334852430555554,0)" xlink:href="#ab"/><use transform="matrix(0.00759548611111111,0,0,0.00759548611111111,18.669704861111107,0)" xlink:href="#al"/><use transform="matrix(0.00759548611111111,0,0,0.00759548611111111,28.00455729166666,0)" xlink:href="#ae"/><use transform="matrix(0.00759548611111111,0,0,0.00759548611111111,37.339409722222214,0)" xlink:href="#U"/><use transform="matrix(0.00759548611111111,0,0,0.00759548611111111,46.67426215277777,0)" xlink:href="#R"/><use transform="matrix(0.00759548611111111,0,0,0.00759548611111111,56.00911458333333,0)" xlink:href="#Z"/><use transform="matrix(0.00759548611111111,0,0,0.00759548611111111,65.34396701388889,0)" xlink:href="#ae"/></g><g id="K"><use transform="matrix(0.006510416666666667,0,0,0.006510416666666667,0,0)" xlink:href="#Y"/><use transform="matrix(0.006510416666666667,0,0,0.006510416666666667,8.001302083333334,0)" xlink:href="#U"/><use transform="matrix(0.006510416666666667,0,0,0.006510416666666667,16.002604166666668,0)" xlink:href="#am"/><use transform="matrix(0.006510416666666667,0,0,0.006510416666666667,24.00390625,0)" xlink:href="#T"/><use transform="matrix(0.006510416666666667,0,0,0.006510416666666667,32.005208333333336,0)" xlink:href="#R"/><use transform="matrix(0.006510416666666667,0,0,0.006510416666666667,40.00651041666667,0)" xlink:href="#au"/><use transform="matrix(0.006510416666666667,0,0,0.006510416666666667,48.00781250000001,0)" xlink:href="#T"/></g><g id="L"><use transform="matrix(0.006510416666666667,0,0,0.006510416666666667,0,0)" xlink:href="#ar"/><use transform="matrix(0.006510416666666667,0,0,0.006510416666666667,8.001302083333334,0)" xlink:href="#S"/><use transform="matrix(0.006510416666666667,0,0,0.006510416666666667,16.002604166666668,0)" xlink:href="#ab"/><use transform="matrix(0.006510416666666667,0,0,0.006510416666666667,24.00390625,0)" xlink:href="#Z"/><use transform="matrix(0.006510416666666667,0,0,0.006510416666666667,32.005208333333336,0)" xlink:href="#ak"/><use transform="matrix(0.006510416666666667,0,0,0.006510416666666667,40.00651041666667,0)" xlink:href="#am"/><use transform="matrix(0.006510416666666667,0,0,0.006510416666666667,48.00781250000001,0)" xlink:href="#T"/><use transform="matrix(0.006510416666666667,0,0,0.006510416666666667,56.00911458333335,0)" xlink:href="#R"/><use transform="matrix(0.006510416666666667,0,0,0.006510416666666667,64.01041666666667,0)" xlink:href="#au"/><use transform="matrix(0.006510416666666667,0,0,0.006510416666666667,72.01171875,0)" xlink:href="#T"/></g><path fill="#fff" d="M63-220v92h138v28H63V0H30v-248h175v28H63" id="aB"/><path fill="#fff" d="M100-194c63 0 86 42 84 106H49c0 40 14 67 53 68 26 1 43-12 49-29l28 8c-11 28-37 45-77 45C44 4 14-33 15-96c1-61 26-98 85-98zm52 81c6-60-76-77-97-28-3 7-6 17-6 28h103" id="aC"/><path fill="#fff" d="M135-143c-3-34-86-38-87 0 15 53 115 12 119 90S17 21 10-45l28-5c4 36 97 45 98 0-10-56-113-15-118-90-4-57 82-63 122-42 12 7 21 19 24 35" id="aD"/><g id="M"><use transform="matrix(0.03703703703703704,0,0,0.03703703703703704,0,0)" xlink:href="#aB"/><use transform="matrix(0.03703703703703704,0,0,0.03703703703703704,8.111111111111112,0)" xlink:href="#aC"/><use transform="matrix(0.03703703703703704,0,0,0.03703703703703704,15.51851851851852,0)" xlink:href="#aC"/><use transform="matrix(0.03703703703703704,0,0,0.03703703703703704,22.925925925925927,0)" xlink:href="#aD"/></g><path fill="#fff" d="M185-189c-5-48-123-54-124 2 14 75 158 14 163 119 3 78-121 87-175 55-17-10-28-26-33-46l33-7c5 56 141 63 141-1 0-78-155-14-162-118-5-82 145-84 179-34 5 7 8 16 11 25" id="aE"/><path fill="#fff" d="M59-47c-2 24 18 29 38 22v24C64 9 27 4 27-40v-127H5v-23h24l9-43h21v43h35v23H59v120" id="aF"/><path fill="#fff" d="M100-194c62-1 85 37 85 99 1 63-27 99-86 99S16-35 15-95c0-66 28-99 85-99zM99-20c44 1 53-31 53-75 0-43-8-75-51-75s-53 32-53 75 10 74 51 75" id="aG"/><path fill="#fff" d="M114-163C36-179 61-72 57 0H25l-1-190h30c1 12-1 29 2 39 6-27 23-49 58-41v29" id="aH"/><path fill="#fff" d="M141-36C126-15 110 5 73 4 37 3 15-17 15-53c-1-64 63-63 125-63 3-35-9-54-41-54-24 1-41 7-42 31l-33-3c5-37 33-52 76-52 45 0 72 20 72 64v82c-1 20 7 32 28 27v20c-31 9-61-2-59-35zM48-53c0 20 12 33 32 33 41-3 63-29 60-74-43 2-92-5-92 41" id="aI"/><path fill="#fff" d="M177-190C167-65 218 103 67 71c-23-6-38-20-44-43l32-5c15 47 100 32 89-28v-30C133-14 115 1 83 1 29 1 15-40 15-95c0-56 16-97 71-98 29-1 48 16 59 35 1-10 0-23 2-32h30zM94-22c36 0 50-32 50-73 0-42-14-75-50-75-39 0-46 34-46 75s6 73 46 73" id="aJ"/><g id="N"><use transform="matrix(0.03703703703703704,0,0,0.03703703703703704,0,0)" xlink:href="#aE"/><use transform="matrix(0.03703703703703704,0,0,0.03703703703703704,8.88888888888889,0)" xlink:href="#aF"/><use transform="matrix(0.03703703703703704,0,0,0.03703703703703704,12.592592592592593,0)" xlink:href="#aG"/><use transform="matrix(0.03703703703703704,0,0,0.03703703703703704,20,0)" xlink:href="#aH"/><use transform="matrix(0.03703703703703704,0,0,0.03703703703703704,24.407407407407405,0)" xlink:href="#aI"/><use transform="matrix(0.03703703703703704,0,0,0.03703703703703704,31.814814814814813,0)" xlink:href="#aJ"/><use transform="matrix(0.03703703703703704,0,0,0.03703703703703704,39.22222222222223,0)" xlink:href="#aC"/></g></defs></g></svg>